<?xml version="1.0" encoding="UTF-8" standalone="no"?>
<!DOCTYPE svg PUBLIC "-//W3C//DTD SVG 1.1//EN"
 "http://www.w3.org/Graphics/SVG/1.1/DTD/svg11.dtd">
<!-- Generated by graphviz version 2.44.0 (0)
 -->
<!-- Title: sphinx&#45;ext&#45;graphviz Pages: 1 -->
<svg width="432pt" height="55pt"
 viewBox="0.00 0.00 432.00 54.70" xmlns="http://www.w3.org/2000/svg" xmlns:xlink="http://www.w3.org/1999/xlink">
<g id="graph0" class="graph" transform="scale(0.7 0.7) rotate(0) translate(4 74)">
<title>sphinx&#45;ext&#45;graphviz</title>
<polygon fill="white" stroke="transparent" points="-4,4 -4,-74 612,-74 612,4 -4,4"/>
<!-- sphinx -->
<g id="node1" class="node">
<title>sphinx</title>
<g id="a_node1"><a xlink:href="https://www.sphinx-doc.org/" xlink:title="Sphinx" target="_blank">
<polygon fill="none" stroke="black" points="204,-40 147,-40 147,-36 143,-36 143,-32 147,-32 147,-12 143,-12 143,-8 147,-8 147,-4 204,-4 204,-40"/>
<polyline fill="none" stroke="black" points="147,-36 151,-36 151,-32 147,-32 "/>
<polyline fill="none" stroke="black" points="147,-12 151,-12 151,-8 147,-8 "/>
<text text-anchor="middle" x="175.5" y="-18.9" font-family="Verdana" font-size="12.00">Sphinx</text>
</a>
</g>
</g>
<!-- dot -->
<g id="node2" class="node">
<title>dot</title>
<g id="a_node2"><a xlink:href="https://www.graphviz.org/" xlink:title="GraphViz" target="_blank">
<polygon fill="none" stroke="black" points="332,-70 262,-70 262,-66 258,-66 258,-62 262,-62 262,-42 258,-42 258,-38 262,-38 262,-34 332,-34 332,-70"/>
<polyline fill="none" stroke="black" points="262,-66 266,-66 266,-62 262,-62 "/>
<polyline fill="none" stroke="black" points="262,-42 266,-42 266,-38 262,-38 "/>
<text text-anchor="middle" x="297" y="-48.9" font-family="Verdana" font-size="12.00">GraphViz</text>
</a>
</g>
</g>
<!-- sphinx&#45;&gt;dot -->
<g id="edge2" class="edge">
<title>sphinx&#45;&gt;dot</title>
<path fill="none" stroke="black" stroke-dasharray="5,2" d="M204.22,-28.96C221.32,-33.25 243.38,-38.79 261.6,-43.36"/>
<text text-anchor="middle" x="233" y="-40.8" font-family="Sans" font-size="9.00"> call </text>
</g>
<!-- html_files -->
<g id="node5" class="node">
<title>html_files</title>
<polygon fill="yellow" stroke="black" points="608,-36 605,-40 584,-40 581,-36 528,-36 528,0 608,0 608,-36"/>
<text text-anchor="middle" x="568" y="-14.9" font-family="Verdana" font-size="12.00">HTML Files</text>
</g>
<!-- sphinx&#45;&gt;html_files -->
<g id="edge4" class="edge">
<title>sphinx&#45;&gt;html_files</title>
<path fill="none" stroke="black" d="M204.27,-21.72C269.77,-21.04 434.63,-19.36 517.63,-18.51"/>
<polygon fill="black" stroke="black" points="517.86,-22 527.82,-18.4 517.78,-15 517.86,-22"/>
<text text-anchor="middle" x="368.5" y="-23.8" font-family="Sans" font-size="9.00"> render </text>
</g>
<!-- svg_file -->
<g id="node4" class="node">
<title>svg_file</title>
<polygon fill="#3333ff" stroke="black" points="485,-70 405,-70 405,-34 491,-34 491,-64 485,-70"/>
<polyline fill="none" stroke="black" points="485,-70 485,-64 "/>
<polyline fill="none" stroke="black" points="491,-64 485,-64 "/>
<text text-anchor="middle" x="448" y="-48.9" font-family="Verdana" font-size="12.00" fill="white">SVG Image</text>
</g>
<!-- dot&#45;&gt;svg_file -->
<g id="edge3" class="edge">
<title>dot&#45;&gt;svg_file</title>
<path fill="none" stroke="black" d="M332.18,-52C350.71,-52 373.99,-52 394.73,-52"/>
<polygon fill="black" stroke="black" points="395,-55.5 405,-52 395,-48.5 395,-55.5"/>
<text text-anchor="middle" x="368.5" y="-54.8" font-family="Sans" font-size="9.00"> draw </text>
</g>
<!-- docs -->
<g id="node3" class="node">
<title>docs</title>
<polygon fill="green" stroke="black" points="80,-40 77,-44 56,-44 53,-40 0,-40 0,-4 80,-4 80,-40"/>
<text text-anchor="middle" x="40" y="-18.9" font-family="Verdana" font-size="12.00">Docs (.rst)</text>
</g>
<!-- docs&#45;&gt;sphinx -->
<g id="edge1" class="edge">
<title>docs&#45;&gt;sphinx</title>
<path fill="none" stroke="black" d="M80.33,-22C98.04,-22 118.86,-22 136.42,-22"/>
<polygon fill="black" stroke="black" points="136.87,-25.5 146.87,-22 136.87,-18.5 136.87,-25.5"/>
<text text-anchor="middle" x="113.5" y="-24.8" font-family="Sans" font-size="9.00"> parse </text>
</g>
<!-- svg_file&#45;&gt;html_files -->
<g id="edge5" class="edge">
<title>svg_file&#45;&gt;html_files</title>
<path fill="none" stroke="black" stroke-dasharray="5,2" d="M491.27,-39.82C499.92,-37.33 509.09,-34.69 517.95,-32.13"/>
<polygon fill="black" stroke="black" points="519.14,-35.43 527.78,-29.3 517.2,-28.71 519.14,-35.43"/>
</g>
</g>
</svg>
