<?xml version="1.0" encoding="UTF-8" standalone="no"?>
<!DOCTYPE svg PUBLIC "-//W3C//DTD SVG 1.1//EN"
 "http://www.w3.org/Graphics/SVG/1.1/DTD/svg11.dtd">
<!-- Generated by graphviz version 2.44.0 (0)
 -->
<!-- Title: G Pages: 1 -->
<svg width="300pt" height="260pt"
 viewBox="0.00 0.00 300.14 260.00" xmlns="http://www.w3.org/2000/svg" xmlns:xlink="http://www.w3.org/1999/xlink">
<g id="graph0" class="graph" transform="scale(1 1) rotate(0) translate(4 256)">
<title>G</title>
<polygon fill="white" stroke="transparent" points="-4,4 -4,-256 296.14,-256 296.14,4 -4,4"/>
<!-- main -->
<g id="node1" class="node">
<title>main</title>
<g id="a_node1"><a xlink:title="&#39;2004es&#39;, 4">
<polygon fill="none" stroke="black" points="205.1,-252 113.11,-252 104.1,-216 196.08,-216 205.1,-252"/>
<text text-anchor="middle" x="154.6" y="-230.3" font-family="Courier,monospace" font-size="14.00">Identifier</text>
</a>
</g>
</g>
<!-- parse -->
<g id="node2" class="node">
<title>parse</title>
<ellipse fill="none" stroke="black" cx="111.6" cy="-162" rx="29.5" ry="18"/>
<text text-anchor="middle" x="111.6" y="-158.3" font-family="Times,serif" font-size="14.00">parse</text>
</g>
<!-- main&#45;&gt;parse -->
<g id="edge1" class="edge">
<title>main&#45;&gt;parse</title>
<path fill="none" stroke="black" d="M143.97,-215.7C138.82,-207.32 132.54,-197.1 126.89,-187.9"/>
<polygon fill="black" stroke="black" points="129.73,-185.83 121.51,-179.14 123.76,-189.5 129.73,-185.83"/>
</g>
<!-- init -->
<g id="node4" class="node">
<title>init</title>
<ellipse fill="none" stroke="black" cx="54.6" cy="-90" rx="27" ry="18"/>
<text text-anchor="middle" x="54.6" y="-86.3" font-family="Times,serif" font-size="14.00">init</text>
</g>
<!-- main&#45;&gt;init -->
<g id="edge3" class="edge">
<title>main&#45;&gt;init</title>
<path fill="none" stroke="black" d="M115.81,-215.83C100.47,-207.18 84.05,-195.25 73.6,-180 61.14,-161.83 56.62,-137.06 55.08,-118.26"/>
<polygon fill="black" stroke="black" points="58.57,-118.02 54.49,-108.24 51.58,-118.43 58.57,-118.02"/>
</g>
<!-- cleanup -->
<g id="node5" class="node">
<title>cleanup</title>
<ellipse fill="none" stroke="black" cx="197.6" cy="-162" rx="38.19" ry="18"/>
<text text-anchor="middle" x="197.6" y="-158.3" font-family="Times,serif" font-size="14.00">cleanup</text>
</g>
<!-- main&#45;&gt;cleanup -->
<g id="edge4" class="edge">
<title>main&#45;&gt;cleanup</title>
<path fill="none" stroke="black" d="M165.22,-215.7C170.3,-207.44 176.47,-197.39 182.05,-188.3"/>
<polygon fill="black" stroke="black" points="185.13,-189.98 187.38,-179.62 179.17,-186.31 185.13,-189.98"/>
</g>
<!-- printf -->
<g id="node7" class="node">
<title>printf</title>
<ellipse fill="none" stroke="black" cx="261.6" cy="-18" rx="30.59" ry="18"/>
<text text-anchor="middle" x="261.6" y="-14.3" font-family="Times,serif" font-size="14.00">printf</text>
</g>
<!-- main&#45;&gt;printf -->
<g id="edge8" class="edge">
<title>main&#45;&gt;printf</title>
<path fill="none" stroke="black" d="M197.09,-217.99C214.67,-209.58 233.51,-197.23 244.6,-180 270.81,-139.27 269.43,-80.41 265.73,-46.29"/>
<polygon fill="black" stroke="black" points="269.18,-45.63 264.48,-36.14 262.23,-46.49 269.18,-45.63"/>
</g>
<!-- execute -->
<g id="node3" class="node">
<title>execute</title>
<ellipse fill="none" stroke="black" cx="153.6" cy="-90" rx="37.89" ry="18"/>
<text text-anchor="middle" x="153.6" y="-86.3" font-family="Times,serif" font-size="14.00">execute</text>
</g>
<!-- parse&#45;&gt;execute -->
<g id="edge2" class="edge">
<title>parse&#45;&gt;execute</title>
<path fill="none" stroke="black" d="M121.34,-144.76C126.4,-136.32 132.72,-125.8 138.41,-116.31"/>
<polygon fill="black" stroke="black" points="141.47,-118.01 143.62,-107.63 135.47,-114.41 141.47,-118.01"/>
</g>
<!-- make_string -->
<g id="node6" class="node">
<title>make_string</title>
<ellipse fill="none" stroke="black" cx="54.6" cy="-18" rx="54.69" ry="18"/>
<text text-anchor="middle" x="54.6" y="-14.3" font-family="Times,serif" font-size="14.00">make_string</text>
</g>
<!-- execute&#45;&gt;make_string -->
<g id="edge5" class="edge">
<title>execute&#45;&gt;make_string</title>
<path fill="none" stroke="black" d="M133.08,-74.5C119.22,-64.7 100.69,-51.59 85.11,-40.57"/>
<polygon fill="black" stroke="black" points="86.99,-37.62 76.8,-34.7 82.95,-43.33 86.99,-37.62"/>
</g>
<!-- execute&#45;&gt;printf -->
<g id="edge6" class="edge">
<title>execute&#45;&gt;printf</title>
<path fill="none" stroke="black" d="M175.19,-75C191.91,-64.17 215.2,-49.07 233.39,-37.28"/>
<polygon fill="black" stroke="black" points="235.37,-40.17 241.86,-31.79 231.56,-34.3 235.37,-40.17"/>
</g>
<!-- compare -->
<g id="node8" class="node">
<title>compare</title>
<ellipse fill="none" stroke="black" cx="168.6" cy="-18" rx="41.69" ry="18"/>
<text text-anchor="middle" x="168.6" y="-14.3" font-family="Times,serif" font-size="14.00">compare</text>
</g>
<!-- execute&#45;&gt;compare -->
<g id="edge9" class="edge">
<title>execute&#45;&gt;compare</title>
<path fill="none" stroke="black" d="M157.23,-72.05C158.9,-64.26 160.92,-54.82 162.79,-46.08"/>
<polygon fill="black" stroke="black" points="166.22,-46.79 164.89,-36.28 159.38,-45.32 166.22,-46.79"/>
</g>
<!-- init&#45;&gt;make_string -->
<g id="edge7" class="edge">
<title>init&#45;&gt;make_string</title>
<path fill="none" stroke="black" d="M54.6,-71.7C54.6,-63.98 54.6,-54.71 54.6,-46.11"/>
<polygon fill="black" stroke="black" points="58.1,-46.1 54.6,-36.1 51.1,-46.1 58.1,-46.1"/>
</g>
</g>
</svg>
