<?xml version="1.0" encoding="UTF-8" standalone="no"?>
<!DOCTYPE svg PUBLIC "-//W3C//DTD SVG 1.1//EN"
 "http://www.w3.org/Graphics/SVG/1.1/DTD/svg11.dtd">
<!-- Generated by graphviz version 2.44.0 (0)
 -->
<!-- Title: G Pages: 1 -->
<svg width="426pt" height="785pt"
 viewBox="0.00 0.00 426.40 785.00" xmlns="http://www.w3.org/2000/svg" xmlns:xlink="http://www.w3.org/1999/xlink">
<g id="graph0" class="graph" transform="scale(1 1) rotate(0) translate(4 781)">
<title>G</title>
<polygon fill="white" stroke="transparent" points="-4,4 -4,-781 422.4,-781 422.4,4 -4,4"/>
<!-- cli -->
<g id="node1" class="node">
<title>cli</title>
<g id="a_node1"><a xlink:title="rocks identify">
<ellipse fill="none" stroke="black" cx="66.94" cy="-759" rx="66.89" ry="18"/>
<text text-anchor="middle" x="66.94" y="-755.3" font-family="Times,serif" font-size="14.00">Command Line</text>
</a>
</g>
</g>
<!-- identifier -->
<g id="node3" class="node">
<title>identifier</title>
<g id="a_node3"><a xlink:title="&#39;2004es&#39; 4, &#39;ceres&#39;">
<polygon fill="none" stroke="black" points="175.44,-704 83.46,-704 74.44,-668 166.42,-668 175.44,-704"/>
<text text-anchor="middle" x="124.94" y="-682.3" font-family="Courier,monospace" font-size="14.00">Identifier</text>
</a>
</g>
</g>
<!-- cli&#45;&gt;identifier -->
<g id="edge1" class="edge">
<title>cli&#45;&gt;identifier</title>
<path fill="none" stroke="black" d="M80.69,-741.17C87.81,-732.46 96.64,-721.65 104.54,-711.98"/>
<polygon fill="black" stroke="black" points="107.28,-714.16 110.89,-704.2 101.86,-709.73 107.28,-714.16"/>
</g>
<!-- script -->
<g id="node2" class="node">
<title>script</title>
<g id="a_node2"><a xlink:title="rocks.name.identify()">
<ellipse fill="none" stroke="black" cx="183.94" cy="-759" rx="31.7" ry="18"/>
<text text-anchor="middle" x="183.94" y="-755.3" font-family="Times,serif" font-size="14.00">Script</text>
</a>
</g>
</g>
<!-- script&#45;&gt;identifier -->
<g id="edge2" class="edge">
<title>script&#45;&gt;identifier</title>
<path fill="none" stroke="black" d="M170.85,-742.24C163.46,-733.35 154.05,-722.02 145.67,-711.95"/>
<polygon fill="black" stroke="black" points="148.32,-709.66 139.24,-704.2 142.94,-714.13 148.32,-709.66"/>
</g>
<!-- bouncer -->
<g id="node4" class="node">
<title>bouncer</title>
<g id="a_node4"><a xlink:title="isinstance(id_, (str, int, float)">
<polygon fill="none" stroke="black" points="124.94,-631 34.79,-613 124.94,-595 215.1,-613 124.94,-631"/>
<text text-anchor="middle" x="124.94" y="-609.3" font-family="Times,serif" font-size="14.00">Valid identifier</text>
</a>
</g>
</g>
<!-- identifier&#45;&gt;bouncer -->
<g id="edge3" class="edge">
<title>identifier&#45;&gt;bouncer</title>
<path fill="none" stroke="black" d="M124.94,-667.81C124.94,-659.79 124.94,-650.05 124.94,-641.07"/>
<polygon fill="black" stroke="black" points="128.44,-641.03 124.94,-631.03 121.44,-641.03 128.44,-641.03"/>
</g>
<!-- formatting -->
<g id="node5" class="node">
<title>formatting</title>
<g id="a_node5"><a xlink:title="Find type of identifier with regex, ensure proper format">
<polygon fill="none" stroke="black" points="251.44,-544 174.44,-544 174.44,-508 251.44,-508 251.44,-544"/>
<text text-anchor="middle" x="212.94" y="-522.3" font-family="Times,serif" font-size="14.00">Formatting</text>
</a>
</g>
</g>
<!-- bouncer&#45;&gt;formatting -->
<g id="edge4" class="edge">
<title>bouncer&#45;&gt;formatting</title>
<path fill="none" stroke="black" d="M139.87,-597.58C153.02,-584.88 172.44,-566.13 187.95,-551.14"/>
<polygon fill="black" stroke="black" points="190.45,-553.6 195.21,-544.13 185.58,-548.56 190.45,-553.6"/>
<text text-anchor="middle" x="190.94" y="-565.8" font-family="Courier,monospace" font-size="14.00">True</text>
</g>
<!-- wrongid -->
<g id="node6" class="node">
<title>wrongid</title>
<text text-anchor="middle" x="117.94" y="-14.3" font-family="Courier,monospace" font-size="14.00">return None, None</text>
</g>
<!-- bouncer&#45;&gt;wrongid -->
<g id="edge5" class="edge">
<title>bouncer&#45;&gt;wrongid</title>
<path fill="none" stroke="black" d="M120.06,-595.87C115.35,-578.9 108.94,-551.33 108.94,-527 108.94,-527 108.94,-527 108.94,-104 108.94,-84.64 111.28,-62.95 113.57,-46.32"/>
<polygon fill="black" stroke="black" points="117.07,-46.6 115.05,-36.2 110.14,-45.59 117.07,-46.6"/>
<text text-anchor="middle" x="129.94" y="-318.8" font-family="Courier,monospace" font-size="14.00">False</text>
</g>
<!-- format -->
<g id="node7" class="node">
<title>format</title>
<g id="a_node7"><a xlink:title="Name, Designation, Comet">
<polygon fill="none" stroke="black" points="250.94,-471 136.99,-453 250.94,-435 364.9,-453 250.94,-471"/>
<text text-anchor="middle" x="250.94" y="-449.3" font-family="Times,serif" font-size="14.00">Recognized Format</text>
</a>
</g>
</g>
<!-- formatting&#45;&gt;format -->
<g id="edge6" class="edge">
<title>formatting&#45;&gt;format</title>
<path fill="none" stroke="black" d="M222.14,-507.81C226.76,-499.19 232.43,-488.59 237.52,-479.09"/>
<polygon fill="black" stroke="black" points="240.72,-480.52 242.35,-470.06 234.55,-477.22 240.72,-480.52"/>
</g>
<!-- local -->
<g id="node8" class="node">
<title>local</title>
<g id="a_node8"><a xlink:title="rocks index">
<polygon fill="none" stroke="black" points="327.94,-384 324.94,-388 303.94,-388 300.94,-384 245.94,-384 245.94,-348 327.94,-348 327.94,-384"/>
<text text-anchor="middle" x="286.94" y="-362.3" font-family="Times,serif" font-size="14.00">Local Index</text>
</a>
</g>
</g>
<!-- format&#45;&gt;local -->
<g id="edge7" class="edge">
<title>format&#45;&gt;local</title>
<path fill="none" stroke="black" d="M257.72,-436.01C262.76,-424.09 269.77,-407.54 275.66,-393.64"/>
<polygon fill="black" stroke="black" points="279.03,-394.66 279.71,-384.08 272.59,-391.93 279.03,-394.66"/>
<text text-anchor="middle" x="287.94" y="-405.8" font-family="Courier,monospace" font-size="14.00">True</text>
</g>
<!-- remote -->
<g id="node9" class="node">
<title>remote</title>
<g id="a_node9"><a xlink:title="Result is cached at runtime">
<polygon fill="none" stroke="black" points="240.94,-210 172.94,-210 172.94,-174 240.94,-174 240.94,-210"/>
<text text-anchor="middle" x="206.94" y="-188.3" font-family="Times,serif" font-size="14.00">SsODNet</text>
</a>
</g>
</g>
<!-- format&#45;&gt;remote -->
<g id="edge8" class="edge">
<title>format&#45;&gt;remote</title>
<path fill="none" stroke="black" d="M242.88,-436.25C229.33,-408.83 202.56,-350.15 192.94,-297 188.23,-270.93 193.39,-240.92 198.72,-219.85"/>
<polygon fill="black" stroke="black" points="202.16,-220.57 201.4,-210.01 195.4,-218.74 202.16,-220.57"/>
<text text-anchor="middle" x="220.94" y="-318.8" font-family="Courier,monospace" font-size="14.00">False</text>
</g>
<!-- found -->
<g id="node10" class="node">
<title>found</title>
<polygon fill="none" stroke="black" points="309.94,-297 201.52,-279 309.94,-261 418.37,-279 309.94,-297"/>
<text text-anchor="middle" x="309.94" y="-275.3" font-family="Times,serif" font-size="14.00">Lookup successful</text>
</g>
<!-- local&#45;&gt;found -->
<g id="edge9" class="edge">
<title>local&#45;&gt;found</title>
<path fill="none" stroke="black" d="M291.6,-347.8C294.84,-335.82 299.23,-319.61 302.89,-306.05"/>
<polygon fill="black" stroke="black" points="306.3,-306.88 305.53,-296.31 299.54,-305.05 306.3,-306.88"/>
</g>
<!-- identified -->
<g id="node12" class="node">
<title>identified</title>
<polygon fill="none" stroke="black" points="206.94,-123 143.6,-105 206.94,-87 270.29,-105 206.94,-123"/>
<text text-anchor="middle" x="206.94" y="-101.3" font-family="Times,serif" font-size="14.00">Identified</text>
</g>
<!-- remote&#45;&gt;identified -->
<g id="edge12" class="edge">
<title>remote&#45;&gt;identified</title>
<path fill="none" stroke="black" d="M206.94,-173.8C206.94,-162.16 206.94,-146.55 206.94,-133.24"/>
<polygon fill="black" stroke="black" points="210.44,-133.18 206.94,-123.18 203.44,-133.18 210.44,-133.18"/>
</g>
<!-- found&#45;&gt;remote -->
<g id="edge11" class="edge">
<title>found&#45;&gt;remote</title>
<path fill="none" stroke="black" d="M284.4,-265.16C273.56,-259.14 261.12,-251.44 250.94,-243 242.18,-235.73 233.64,-226.65 226.46,-218.23"/>
<polygon fill="black" stroke="black" points="229.09,-215.92 220.02,-210.44 223.69,-220.38 229.09,-215.92"/>
<text text-anchor="middle" x="271.94" y="-231.8" font-family="Courier,monospace" font-size="14.00">False</text>
</g>
<!-- good -->
<g id="node11" class="node">
<title>good</title>
<text text-anchor="middle" x="304.94" y="-14.3" font-family="Courier,monospace" font-size="14.00">return number, name</text>
</g>
<!-- found&#45;&gt;good -->
<g id="edge10" class="edge">
<title>found&#45;&gt;good</title>
<path fill="none" stroke="black" d="M309.62,-261.01C308.77,-217.1 306.5,-99.6 305.47,-46.15"/>
<polygon fill="black" stroke="black" points="308.97,-45.99 305.27,-36.06 301.97,-46.12 308.97,-45.99"/>
<text text-anchor="middle" x="323.94" y="-144.8" font-family="Courier,monospace" font-size="14.00">True</text>
</g>
<!-- identified&#45;&gt;wrongid -->
<g id="edge14" class="edge">
<title>identified&#45;&gt;wrongid</title>
<path fill="none" stroke="black" d="M193.04,-90.72C179.85,-78.12 159.7,-58.88 143.6,-43.5"/>
<polygon fill="black" stroke="black" points="145.71,-40.68 136.06,-36.3 140.88,-45.74 145.71,-40.68"/>
<text text-anchor="middle" x="187.94" y="-57.8" font-family="Courier,monospace" font-size="14.00">False</text>
</g>
<!-- identified&#45;&gt;good -->
<g id="edge13" class="edge">
<title>identified&#45;&gt;good</title>
<path fill="none" stroke="black" d="M220.23,-90.4C230.5,-80.08 245.25,-65.73 258.94,-54 263.44,-50.15 268.3,-46.22 273.12,-42.45"/>
<polygon fill="black" stroke="black" points="275.33,-45.16 281.13,-36.3 271.07,-39.61 275.33,-45.16"/>
<text text-anchor="middle" x="275.94" y="-57.8" font-family="Courier,monospace" font-size="14.00">True</text>
</g>
</g>
</svg>
