<?xml version="1.0" encoding="UTF-8" standalone="no"?>
<!DOCTYPE svg PUBLIC "-//W3C//DTD SVG 1.1//EN"
 "http://www.w3.org/Graphics/SVG/1.1/DTD/svg11.dtd">
<!-- Generated by graphviz version 2.44.0 (0)
 -->
<!-- Title: G Pages: 1 -->
<svg width="389pt" height="929pt"
 viewBox="0.00 0.00 389.49 929.00" xmlns="http://www.w3.org/2000/svg" xmlns:xlink="http://www.w3.org/1999/xlink">
<g id="graph0" class="graph" transform="scale(1 1) rotate(0) translate(4 925)">
<title>G</title>
<polygon fill="white" stroke="transparent" points="-4,4 -4,-925 385.49,-925 385.49,4 -4,4"/>
<!-- cli -->
<g id="node1" class="node">
<title>cli</title>
<g id="a_node1"><a xlink:title="rocks identify">
<ellipse fill="none" stroke="black" cx="66.94" cy="-903" rx="66.89" ry="18"/>
<text text-anchor="middle" x="66.94" y="-899.3" font-family="Times,serif" font-size="14.00">Command Line</text>
</a>
</g>
</g>
<!-- identifier -->
<g id="node3" class="node">
<title>identifier</title>
<g id="a_node3"><a xlink:title="&#39;2004es&#39; 4, &#39;ceres&#39;">
<polygon fill="none" stroke="black" points="175.44,-848 83.46,-848 74.44,-812 166.42,-812 175.44,-848"/>
<text text-anchor="middle" x="124.94" y="-826.3" font-family="Courier,monospace" font-size="14.00">Identifier</text>
</a>
</g>
</g>
<!-- cli&#45;&gt;identifier -->
<g id="edge1" class="edge">
<title>cli&#45;&gt;identifier</title>
<path fill="none" stroke="black" d="M80.69,-885.17C87.81,-876.46 96.64,-865.65 104.54,-855.98"/>
<polygon fill="black" stroke="black" points="107.28,-858.16 110.89,-848.2 101.86,-853.73 107.28,-858.16"/>
</g>
<!-- script -->
<g id="node2" class="node">
<title>script</title>
<g id="a_node2"><a xlink:title="rocks.name.identify()">
<ellipse fill="none" stroke="black" cx="183.94" cy="-903" rx="31.7" ry="18"/>
<text text-anchor="middle" x="183.94" y="-899.3" font-family="Times,serif" font-size="14.00">Script</text>
</a>
</g>
</g>
<!-- script&#45;&gt;identifier -->
<g id="edge2" class="edge">
<title>script&#45;&gt;identifier</title>
<path fill="none" stroke="black" d="M170.85,-886.24C163.46,-877.35 154.05,-866.02 145.67,-855.95"/>
<polygon fill="black" stroke="black" points="148.32,-853.66 139.24,-848.2 142.94,-858.13 148.32,-853.66"/>
</g>
<!-- bouncer -->
<g id="node4" class="node">
<title>bouncer</title>
<g id="a_node4"><a xlink:title="isinstance(id_, (str, int, float)">
<polygon fill="none" stroke="black" points="124.94,-775 51.2,-739 124.94,-703 198.69,-739 124.94,-775"/>
<text text-anchor="middle" x="124.94" y="-735.3" font-family="Times,serif" font-size="14.00">Valid Identifier</text>
</a>
</g>
</g>
<!-- identifier&#45;&gt;bouncer -->
<g id="edge3" class="edge">
<title>identifier&#45;&gt;bouncer</title>
<path fill="none" stroke="black" d="M124.94,-811.84C124.94,-804.2 124.94,-794.8 124.94,-785.35"/>
<polygon fill="black" stroke="black" points="128.44,-785.16 124.94,-775.16 121.44,-785.16 128.44,-785.16"/>
</g>
<!-- formatting -->
<g id="node5" class="node">
<title>formatting</title>
<g id="a_node5"><a xlink:title="Find type of identifier with regex, ensure proper format">
<polygon fill="none" stroke="black" points="241.44,-652 164.44,-652 164.44,-616 241.44,-616 241.44,-652"/>
<text text-anchor="middle" x="202.94" y="-630.3" font-family="Times,serif" font-size="14.00">Formatting</text>
</a>
</g>
</g>
<!-- bouncer&#45;&gt;formatting -->
<g id="edge4" class="edge">
<title>bouncer&#45;&gt;formatting</title>
<path fill="none" stroke="black" d="M144.43,-712.27C156.46,-696.39 171.83,-676.09 183.8,-660.29"/>
<polygon fill="black" stroke="black" points="186.8,-662.11 190.05,-652.02 181.22,-657.88 186.8,-662.11"/>
<text text-anchor="middle" x="191.94" y="-673.8" font-family="Courier,monospace" font-size="14.00">True</text>
</g>
<!-- wrongid -->
<g id="node6" class="node">
<title>wrongid</title>
<text text-anchor="middle" x="108.94" y="-14.3" font-family="Courier,monospace" font-size="14.00">return None, None</text>
</g>
<!-- bouncer&#45;&gt;wrongid -->
<g id="edge5" class="edge">
<title>bouncer&#45;&gt;wrongid</title>
<path fill="none" stroke="black" d="M117.41,-706.18C113.26,-685.93 108.94,-659.07 108.94,-635 108.94,-635 108.94,-635 108.94,-122 108.94,-96.27 108.94,-66.91 108.94,-46.15"/>
<polygon fill="black" stroke="black" points="112.44,-46.13 108.94,-36.13 105.44,-46.13 112.44,-46.13"/>
<text text-anchor="middle" x="129.94" y="-390.8" font-family="Courier,monospace" font-size="14.00">False</text>
</g>
<!-- format -->
<g id="node7" class="node">
<title>format</title>
<g id="a_node7"><a xlink:title="Name, Designation, Comet">
<polygon fill="none" stroke="black" points="229.94,-579 137.39,-543 229.94,-507 322.5,-543 229.94,-579"/>
<text text-anchor="middle" x="229.94" y="-539.3" font-family="Times,serif" font-size="14.00">Recognized Format</text>
</a>
</g>
</g>
<!-- formatting&#45;&gt;format -->
<g id="edge6" class="edge">
<title>formatting&#45;&gt;format</title>
<path fill="none" stroke="black" d="M208.15,-615.84C210.8,-607.1 214.15,-596.06 217.42,-585.28"/>
<polygon fill="black" stroke="black" points="220.83,-586.1 220.38,-575.52 214.13,-584.07 220.83,-586.1"/>
</g>
<!-- local -->
<g id="node8" class="node">
<title>local</title>
<g id="a_node8"><a xlink:title="rocks index">
<polygon fill="none" stroke="black" points="295.94,-456 292.94,-460 271.94,-460 268.94,-456 213.94,-456 213.94,-420 295.94,-420 295.94,-456"/>
<text text-anchor="middle" x="254.94" y="-434.3" font-family="Times,serif" font-size="14.00">Local Index</text>
</a>
</g>
</g>
<!-- format&#45;&gt;local -->
<g id="edge7" class="edge">
<title>format&#45;&gt;local</title>
<path fill="none" stroke="black" d="M237.72,-509.97C241.13,-495.9 245.1,-479.55 248.37,-466.1"/>
<polygon fill="black" stroke="black" points="251.85,-466.57 250.81,-456.02 245.05,-464.92 251.85,-466.57"/>
<text text-anchor="middle" x="262.94" y="-477.8" font-family="Courier,monospace" font-size="14.00">True</text>
</g>
<!-- remote -->
<g id="node9" class="node">
<title>remote</title>
<g id="a_node9"><a xlink:title="Result is cached at runtime">
<polygon fill="none" stroke="black" points="234.94,-246 166.94,-246 166.94,-210 234.94,-210 234.94,-246"/>
<text text-anchor="middle" x="200.94" y="-224.3" font-family="Times,serif" font-size="14.00">SsODNet</text>
</a>
</g>
</g>
<!-- format&#45;&gt;remote -->
<g id="edge8" class="edge">
<title>format&#45;&gt;remote</title>
<path fill="none" stroke="black" d="M219.69,-510.83C214.67,-494.62 208.87,-474.4 204.94,-456 190.17,-386.69 188.8,-367.75 192.94,-297 193.73,-283.6 195.38,-268.79 196.98,-256.42"/>
<polygon fill="black" stroke="black" points="200.48,-256.66 198.34,-246.28 193.54,-255.72 200.48,-256.66"/>
<text text-anchor="middle" x="214.94" y="-390.8" font-family="Courier,monospace" font-size="14.00">False</text>
</g>
<!-- found -->
<g id="node10" class="node">
<title>found</title>
<polygon fill="none" stroke="black" points="291.94,-369 202.36,-333 291.94,-297 381.53,-333 291.94,-369"/>
<text text-anchor="middle" x="291.94" y="-329.3" font-family="Times,serif" font-size="14.00">Lookup Successful</text>
</g>
<!-- local&#45;&gt;found -->
<g id="edge9" class="edge">
<title>local&#45;&gt;found</title>
<path fill="none" stroke="black" d="M261.05,-419.99C265.51,-407.59 271.73,-390.26 277.43,-374.4"/>
<polygon fill="black" stroke="black" points="280.8,-375.37 280.89,-364.78 274.21,-373 280.8,-375.37"/>
</g>
<!-- identified -->
<g id="node12" class="node">
<title>identified</title>
<polygon fill="none" stroke="black" points="200.94,-159 149.47,-123 200.94,-87 252.42,-123 200.94,-159"/>
<text text-anchor="middle" x="200.94" y="-119.3" font-family="Times,serif" font-size="14.00">Identified</text>
</g>
<!-- remote&#45;&gt;identified -->
<g id="edge12" class="edge">
<title>remote&#45;&gt;identified</title>
<path fill="none" stroke="black" d="M200.94,-209.99C200.94,-198.96 200.94,-184.01 200.94,-169.68"/>
<polygon fill="black" stroke="black" points="204.44,-169.41 200.94,-159.41 197.44,-169.41 204.44,-169.41"/>
</g>
<!-- found&#45;&gt;remote -->
<g id="edge11" class="edge">
<title>found&#45;&gt;remote</title>
<path fill="none" stroke="black" d="M264.36,-307.97C254.94,-299.23 244.6,-289.03 235.94,-279 229.44,-271.46 222.99,-262.71 217.44,-254.67"/>
<polygon fill="black" stroke="black" points="220.29,-252.64 211.8,-246.3 214.48,-256.55 220.29,-252.64"/>
<text text-anchor="middle" x="256.94" y="-267.8" font-family="Courier,monospace" font-size="14.00">False</text>
</g>
<!-- good -->
<g id="node11" class="node">
<title>good</title>
<text text-anchor="middle" x="291.94" y="-14.3" font-family="Courier,monospace" font-size="14.00">return number, name</text>
</g>
<!-- found&#45;&gt;good -->
<g id="edge10" class="edge">
<title>found&#45;&gt;good</title>
<path fill="none" stroke="black" d="M291.94,-296.7C291.94,-233.75 291.94,-103.38 291.94,-46.52"/>
<polygon fill="black" stroke="black" points="295.44,-46.17 291.94,-36.17 288.44,-46.17 295.44,-46.17"/>
<text text-anchor="middle" x="308.94" y="-180.8" font-family="Courier,monospace" font-size="14.00">True</text>
</g>
<!-- identified&#45;&gt;wrongid -->
<g id="edge14" class="edge">
<title>identified&#45;&gt;wrongid</title>
<path fill="none" stroke="black" d="M181.43,-100.16C166.61,-83.56 146.23,-60.74 130.85,-43.53"/>
<polygon fill="black" stroke="black" points="133.45,-41.18 124.17,-36.05 128.23,-45.84 133.45,-41.18"/>
<text text-anchor="middle" x="173.94" y="-57.8" font-family="Courier,monospace" font-size="14.00">False</text>
</g>
<!-- identified&#45;&gt;good -->
<g id="edge13" class="edge">
<title>identified&#45;&gt;good</title>
<path fill="none" stroke="black" d="M214.2,-96.17C221.82,-82.73 232.2,-66.54 243.94,-54 247.78,-49.91 252.15,-45.97 256.65,-42.31"/>
<polygon fill="black" stroke="black" points="259.01,-44.91 264.82,-36.06 254.76,-39.36 259.01,-44.91"/>
<text text-anchor="middle" x="260.94" y="-57.8" font-family="Courier,monospace" font-size="14.00">True</text>
</g>
</g>
</svg>
