<?xml version="1.0" encoding="UTF-8" standalone="no"?>
<!DOCTYPE svg PUBLIC "-//W3C//DTD SVG 1.1//EN"
 "http://www.w3.org/Graphics/SVG/1.1/DTD/svg11.dtd">
<!-- Generated by graphviz version 2.44.0 (0)
 -->
<!-- Title: G Pages: 1 -->
<svg width="430pt" height="821pt"
 viewBox="0.00 0.00 430.24 821.00" xmlns="http://www.w3.org/2000/svg" xmlns:xlink="http://www.w3.org/1999/xlink">
<g id="graph0" class="graph" transform="scale(1 1) rotate(0) translate(4 817)">
<title>G</title>
<polygon fill="white" stroke="transparent" points="-4,4 -4,-817 426.24,-817 426.24,4 -4,4"/>
<!-- cli -->
<g id="node1" class="node">
<title>cli</title>
<g id="a_node1"><a xlink:title="rocks identify">
<ellipse fill="none" stroke="black" cx="66.94" cy="-795" rx="66.89" ry="18"/>
<text text-anchor="middle" x="66.94" y="-791.3" font-family="Times,serif" font-size="14.00">Command Line</text>
</a>
</g>
</g>
<!-- identifier -->
<g id="node3" class="node">
<title>identifier</title>
<g id="a_node3"><a xlink:title="&#39;2004es&#39; 4, &#39;ceres&#39;">
<polygon fill="none" stroke="black" points="175.44,-740 83.46,-740 74.44,-704 166.42,-704 175.44,-740"/>
<text text-anchor="middle" x="124.94" y="-718.3" font-family="Courier,monospace" font-size="14.00">Identifier</text>
</a>
</g>
</g>
<!-- cli&#45;&gt;identifier -->
<g id="edge1" class="edge">
<title>cli&#45;&gt;identifier</title>
<path fill="none" stroke="black" d="M80.69,-777.17C87.81,-768.46 96.64,-757.65 104.54,-747.98"/>
<polygon fill="black" stroke="black" points="107.28,-750.16 110.89,-740.2 101.86,-745.73 107.28,-750.16"/>
</g>
<!-- script -->
<g id="node2" class="node">
<title>script</title>
<g id="a_node2"><a xlink:title="rocks.name.identify()">
<ellipse fill="none" stroke="black" cx="183.94" cy="-795" rx="31.7" ry="18"/>
<text text-anchor="middle" x="183.94" y="-791.3" font-family="Times,serif" font-size="14.00">Script</text>
</a>
</g>
</g>
<!-- script&#45;&gt;identifier -->
<g id="edge2" class="edge">
<title>script&#45;&gt;identifier</title>
<path fill="none" stroke="black" d="M170.85,-778.24C163.46,-769.35 154.05,-758.02 145.67,-747.95"/>
<polygon fill="black" stroke="black" points="148.32,-745.66 139.24,-740.2 142.94,-750.13 148.32,-745.66"/>
</g>
<!-- bouncer -->
<g id="node4" class="node">
<title>bouncer</title>
<g id="a_node4"><a xlink:title="isinstance(id_, (str, int, float)">
<polygon fill="none" stroke="black" points="124.94,-667 33.95,-649 124.94,-631 215.94,-649 124.94,-667"/>
<text text-anchor="middle" x="124.94" y="-645.3" font-family="Times,serif" font-size="14.00">Valid Identifier</text>
</a>
</g>
</g>
<!-- identifier&#45;&gt;bouncer -->
<g id="edge3" class="edge">
<title>identifier&#45;&gt;bouncer</title>
<path fill="none" stroke="black" d="M124.94,-703.81C124.94,-695.79 124.94,-686.05 124.94,-677.07"/>
<polygon fill="black" stroke="black" points="128.44,-677.03 124.94,-667.03 121.44,-677.03 128.44,-677.03"/>
</g>
<!-- formatting -->
<g id="node5" class="node">
<title>formatting</title>
<g id="a_node5"><a xlink:title="Find type of identifier with regex, ensure proper format">
<polygon fill="none" stroke="black" points="251.44,-580 174.44,-580 174.44,-544 251.44,-544 251.44,-580"/>
<text text-anchor="middle" x="212.94" y="-558.3" font-family="Times,serif" font-size="14.00">Formatting</text>
</a>
</g>
</g>
<!-- bouncer&#45;&gt;formatting -->
<g id="edge4" class="edge">
<title>bouncer&#45;&gt;formatting</title>
<path fill="none" stroke="black" d="M139.87,-633.58C153.02,-620.88 172.44,-602.13 187.95,-587.14"/>
<polygon fill="black" stroke="black" points="190.45,-589.6 195.21,-580.13 185.58,-584.56 190.45,-589.6"/>
<text text-anchor="middle" x="190.94" y="-601.8" font-family="Courier,monospace" font-size="14.00">True</text>
</g>
<!-- wrongid -->
<g id="node6" class="node">
<title>wrongid</title>
<text text-anchor="middle" x="118.94" y="-14.3" font-family="Courier,monospace" font-size="14.00">return None, None</text>
</g>
<!-- bouncer&#45;&gt;wrongid -->
<g id="edge5" class="edge">
<title>bouncer&#45;&gt;wrongid</title>
<path fill="none" stroke="black" d="M120.06,-631.87C115.35,-614.9 108.94,-587.33 108.94,-563 108.94,-563 108.94,-563 108.94,-122 108.94,-96.14 112.1,-66.81 114.87,-46.08"/>
<polygon fill="black" stroke="black" points="118.35,-46.47 116.26,-36.08 111.42,-45.5 118.35,-46.47"/>
<text text-anchor="middle" x="129.94" y="-354.8" font-family="Courier,monospace" font-size="14.00">False</text>
</g>
<!-- format -->
<g id="node7" class="node">
<title>format</title>
<g id="a_node7"><a xlink:title="Name, Designation, Comet">
<polygon fill="none" stroke="black" points="250.94,-507 136.99,-489 250.94,-471 364.9,-489 250.94,-507"/>
<text text-anchor="middle" x="250.94" y="-485.3" font-family="Times,serif" font-size="14.00">Recognized Format</text>
</a>
</g>
</g>
<!-- formatting&#45;&gt;format -->
<g id="edge6" class="edge">
<title>formatting&#45;&gt;format</title>
<path fill="none" stroke="black" d="M222.14,-543.81C226.76,-535.19 232.43,-524.59 237.52,-515.09"/>
<polygon fill="black" stroke="black" points="240.72,-516.52 242.35,-506.06 234.55,-513.22 240.72,-516.52"/>
</g>
<!-- local -->
<g id="node8" class="node">
<title>local</title>
<g id="a_node8"><a xlink:title="rocks index">
<polygon fill="none" stroke="black" points="329.94,-420 326.94,-424 305.94,-424 302.94,-420 247.94,-420 247.94,-384 329.94,-384 329.94,-420"/>
<text text-anchor="middle" x="288.94" y="-398.3" font-family="Times,serif" font-size="14.00">Local Index</text>
</a>
</g>
</g>
<!-- format&#45;&gt;local -->
<g id="edge7" class="edge">
<title>format&#45;&gt;local</title>
<path fill="none" stroke="black" d="M258.09,-472.01C263.47,-459.98 270.96,-443.22 277.22,-429.23"/>
<polygon fill="black" stroke="black" points="280.42,-430.64 281.31,-420.08 274.03,-427.78 280.42,-430.64"/>
<text text-anchor="middle" x="288.94" y="-441.8" font-family="Courier,monospace" font-size="14.00">True</text>
</g>
<!-- remote -->
<g id="node9" class="node">
<title>remote</title>
<g id="a_node9"><a xlink:title="Result is cached at runtime">
<polygon fill="none" stroke="black" points="243.94,-246 175.94,-246 175.94,-210 243.94,-210 243.94,-246"/>
<text text-anchor="middle" x="209.94" y="-224.3" font-family="Times,serif" font-size="14.00">SsODNet</text>
</a>
</g>
</g>
<!-- format&#45;&gt;remote -->
<g id="edge8" class="edge">
<title>format&#45;&gt;remote</title>
<path fill="none" stroke="black" d="M242.88,-472.25C229.33,-444.83 202.56,-386.15 192.94,-333 188.21,-306.85 194.32,-276.9 200.49,-255.88"/>
<polygon fill="black" stroke="black" points="203.83,-256.92 203.48,-246.33 197.15,-254.83 203.83,-256.92"/>
<text text-anchor="middle" x="220.94" y="-354.8" font-family="Courier,monospace" font-size="14.00">False</text>
</g>
<!-- found -->
<g id="node10" class="node">
<title>found</title>
<polygon fill="none" stroke="black" points="311.94,-333 201.85,-315 311.94,-297 422.04,-315 311.94,-333"/>
<text text-anchor="middle" x="311.94" y="-311.3" font-family="Times,serif" font-size="14.00">Lookup Successful</text>
</g>
<!-- local&#45;&gt;found -->
<g id="edge9" class="edge">
<title>local&#45;&gt;found</title>
<path fill="none" stroke="black" d="M293.6,-383.8C296.84,-371.82 301.23,-355.61 304.89,-342.05"/>
<polygon fill="black" stroke="black" points="308.3,-342.88 307.53,-332.31 301.54,-341.05 308.3,-342.88"/>
</g>
<!-- identified -->
<g id="node12" class="node">
<title>identified</title>
<polygon fill="none" stroke="black" points="209.94,-159 158.47,-123 209.94,-87 261.42,-123 209.94,-159"/>
<text text-anchor="middle" x="209.94" y="-119.3" font-family="Times,serif" font-size="14.00">Identified</text>
</g>
<!-- remote&#45;&gt;identified -->
<g id="edge12" class="edge">
<title>remote&#45;&gt;identified</title>
<path fill="none" stroke="black" d="M209.94,-209.99C209.94,-198.96 209.94,-184.01 209.94,-169.68"/>
<polygon fill="black" stroke="black" points="213.44,-169.41 209.94,-159.41 206.44,-169.41 213.44,-169.41"/>
</g>
<!-- found&#45;&gt;remote -->
<g id="edge11" class="edge">
<title>found&#45;&gt;remote</title>
<path fill="none" stroke="black" d="M286.06,-301.05C275.29,-295.07 262.98,-287.42 252.94,-279 244.3,-271.75 235.94,-262.68 228.93,-254.26"/>
<polygon fill="black" stroke="black" points="231.65,-252.05 222.65,-246.46 226.2,-256.45 231.65,-252.05"/>
<text text-anchor="middle" x="273.94" y="-267.8" font-family="Courier,monospace" font-size="14.00">False</text>
</g>
<!-- good -->
<g id="node11" class="node">
<title>good</title>
<text text-anchor="middle" x="306.94" y="-14.3" font-family="Courier,monospace" font-size="14.00">return number, name</text>
</g>
<!-- found&#45;&gt;good -->
<g id="edge10" class="edge">
<title>found&#45;&gt;good</title>
<path fill="none" stroke="black" d="M311.65,-296.86C310.82,-247.78 308.42,-106.35 307.41,-46.39"/>
<polygon fill="black" stroke="black" points="310.9,-46.12 307.24,-36.18 303.91,-46.24 310.9,-46.12"/>
<text text-anchor="middle" x="325.94" y="-180.8" font-family="Courier,monospace" font-size="14.00">True</text>
</g>
<!-- identified&#45;&gt;wrongid -->
<g id="edge14" class="edge">
<title>identified&#45;&gt;wrongid</title>
<path fill="none" stroke="black" d="M190.65,-100.16C176.12,-83.71 156.19,-61.15 141.02,-43.99"/>
<polygon fill="black" stroke="black" points="143.25,-41.23 134.01,-36.05 138.01,-45.86 143.25,-41.23"/>
<text text-anchor="middle" x="181.94" y="-57.8" font-family="Courier,monospace" font-size="14.00">False</text>
</g>
<!-- identified&#45;&gt;good -->
<g id="edge13" class="edge">
<title>identified&#45;&gt;good</title>
<path fill="none" stroke="black" d="M225.68,-97.73C235.08,-84.14 247.74,-67.3 260.94,-54 264.83,-50.08 269.17,-46.23 273.59,-42.6"/>
<polygon fill="black" stroke="black" points="275.86,-45.28 281.55,-36.34 271.53,-39.78 275.86,-45.28"/>
<text text-anchor="middle" x="277.94" y="-57.8" font-family="Courier,monospace" font-size="14.00">True</text>
</g>
</g>
</svg>
