<?xml version="1.0" encoding="UTF-8" standalone="no"?>
<!-- Created with Inkscape (http://www.inkscape.org/) -->

<svg
   width="209.83369mm"
   height="54.046841mm"
   viewBox="0 0 209.8337 54.04684"
   version="1.1"
   id="svg5"
   inkscape:version="1.1 (1:1.1+202105261517+ce6663b3b7)"
   sodipodi:docname="logo_rocks.svg"
   xmlns:inkscape="http://www.inkscape.org/namespaces/inkscape"
   xmlns:sodipodi="http://sodipodi.sourceforge.net/DTD/sodipodi-0.dtd"
   xmlns="http://www.w3.org/2000/svg"
   xmlns:svg="http://www.w3.org/2000/svg">
  <sodipodi:namedview
     id="namedview7"
     pagecolor="#505050"
     bordercolor="#eeeeee"
     borderopacity="1"
     inkscape:pageshadow="0"
     inkscape:pageopacity="0"
     inkscape:pagecheckerboard="false"
     inkscape:document-units="mm"
     showgrid="false"
     showguides="true"
     inkscape:guide-bbox="true"
     inkscape:zoom="0.77771465"
     inkscape:cx="406.9616"
     inkscape:cy="-15.429824"
     inkscape:window-width="1904"
     inkscape:window-height="1040"
     inkscape:window-x="2568"
     inkscape:window-y="32"
     inkscape:window-maximized="0"
     inkscape:current-layer="layer1">
    <sodipodi:guide
       position="180.68969,-57.552541"
       orientation="0,-1"
       id="guide37098" />
    <sodipodi:guide
       position="155.13984,85.840806"
       orientation="0,-1"
       id="guide37100" />
    <sodipodi:guide
       position="-27.865848,102.70647"
       orientation="1,0"
       id="guide37102" />
    <sodipodi:guide
       position="-73.904649,83.558495"
       orientation="1,0"
       id="guide37104" />
    <sodipodi:guide
       position="-50.560988,69.174325"
       orientation="1,0"
       id="guide37106" />
    <sodipodi:guide
       position="-134.37173,75.207975"
       orientation="1,0"
       id="guide37108" />
    <sodipodi:guide
       position="-27.865848,86.391325"
       orientation="1,0"
       id="guide37110" />
    <sodipodi:guide
       position="-60.779302,85.105545"
       orientation="1,0"
       id="guide37112" />
    <sodipodi:guide
       position="-60.779302,85.105545"
       orientation="1,0"
       id="guide37114" />
    <sodipodi:guide
       position="-42.574538,91.135315"
       orientation="1,0"
       id="guide37116" />
    <sodipodi:guide
       position="115.08541,28.460889"
       orientation="0,-1"
       id="guide987" />
    <sodipodi:guide
       position="106.00977,10.43927"
       orientation="1,0"
       id="guide989" />
  </sodipodi:namedview>
  <defs
     id="defs2">
    <rect
       x="86.346992"
       y="536.22894"
       width="639.38995"
       height="263.73615"
       id="rect5570" />
  </defs>
  <g
     inkscape:label="Layer 1"
     inkscape:groupmode="layer"
     id="layer1"
     transform="translate(-0.20515543,-151.9499)">
    <path
       id="text5568"
       style="font-style:normal;font-variant:normal;font-weight:normal;font-stretch:normal;font-size:192px;line-height:1.25;font-family:'JetBrainsMonoExtraBold Nerd Font Mono';-inkscape-font-specification:'JetBrainsMonoExtraBold Nerd Font Mono';white-space:pre;shape-inside:url(#rect5570);fill:#000000;fill-opacity:1;stroke:none;stroke-width:0.259386"
       d="m 120.81853,159.10938 v 36.3554 h 7.47024 v -10.7575 h 3.6354 l 5.7771,10.7575 h 8.46639 l -7.76905,-13.99436 7.61964,-13.39675 h -8.31698 l -5.72707,10.35861 h -3.68543 v -19.3229 z m -74.005749,8.46604 c -2.124883,0 -3.834596,0.44821 -5.129446,1.34464 -1.294851,0.89644 -2.075182,2.19161 -2.340793,3.88488 h -0.497898 v -4.73127 h -5.588233 v 27.39111 h 5.986763 V 178.532 c 0,-1.46085 0.381572,-2.60627 1.145202,-3.43631 0.76363,-0.86323 1.809448,-1.29495 3.1375,-1.29495 1.494059,0 2.672797,0.41524 3.536031,1.24527 0.863234,0.83003 1.294959,1.99194 1.294959,3.48599 v 1.74318 h 0.233973 v -12.5708 c -0.566033,-0.0793 -1.153963,-0.12896 -1.778058,-0.12896 z m 25.697976,0 c -1.892475,0 -3.619023,0.26584 -5.179485,0.79706 -1.52726,0.53122 -2.838565,1.27823 -3.934208,2.24107 -1.095643,0.96284 -1.942258,2.12474 -2.53988,3.48599 -0.597625,1.32806 -0.896429,2.78912 -0.896429,4.38278 v 6.52377 c 0,1.59367 0.298804,3.07121 0.896429,4.43246 0.597622,1.32806 1.444237,2.49031 2.53988,3.48635 1.095643,0.96284 2.406948,1.70985 3.934208,2.24107 1.560462,0.53122 3.28701,0.79671 5.179485,0.79671 0.37912,0 0.745511,-0.0185 1.109964,-0.0398 v -6.55936 c -0.349169,0.05 -0.719155,0.0751 -1.109964,0.0751 -1.560462,0 -2.805484,-0.3984 -3.735121,-1.19524 -0.896434,-0.79683 -1.344642,-1.87596 -1.344642,-3.23722 v -6.52377 c 0,-1.36125 0.448208,-2.44039 1.344642,-3.23722 0.929637,-0.79683 2.174659,-1.19524 3.735121,-1.19524 0.390809,0 0.760795,0.0251 1.109964,0.0751 v -6.50967 c -0.364453,-0.0213 -0.730844,-0.0398 -1.109964,-0.0398 z m 30.130073,0 c -1.38874,0 -2.686166,0.14623 -3.896146,0.43236 v 7.3529 c 0.0571,-0.0528 0.0997,-0.1153 0.16103,-0.16527 0.89644,-0.76363 2.141456,-1.14555 3.735116,-1.14555 1.36126,0 2.50668,0.31529 3.43631,0.94611 0.92964,0.63083 1.51077,1.47744 1.74318,2.53988 h 7.47024 c -0.26561,-1.52726 -0.76362,-2.90484 -1.49405,-4.13329 -0.73043,-1.22845 -1.64368,-2.27462 -2.73932,-3.13786 -1.09565,-0.86323 -2.35715,-1.52712 -3.78481,-1.99194 -1.42765,-0.46482 -2.97148,-0.69734 -4.63155,-0.69734 z m 58.21818,0 c -1.82762,0 -3.43087,0.19704 -4.81971,0.58211 v 15.48666 c 1.13743,0.34016 2.40596,0.60755 3.8736,0.76428 l 3.73512,0.39853 c 2.6561,0.29882 3.98424,1.26187 3.98424,2.88873 0,0.92964 -0.36544,1.64333 -1.09587,2.14135 -0.73042,0.49802 -1.79273,0.74703 -3.18718,0.74703 h -2.4902 c -1.02924,0 -1.89234,-0.19921 -2.58956,-0.59762 -0.66403,-0.39842 -1.11224,-0.97955 -1.34465,-1.74318 h -0.8855 v 7.16333 c 1.39706,0.36692 2.9993,0.55604 4.81971,0.55604 h 2.4902 c 3.75175,0 6.60723,-0.7137 8.56611,-2.14135 0.77253,-0.57613 1.3867,-1.26226 1.85452,-2.05009 v -8.59958 c -1.50366,-2.48503 -4.57494,-4.00075 -9.22539,-4.53994 l -3.98425,-0.44821 c -2.25769,-0.26561 -3.38627,-1.19534 -3.38627,-2.78901 0,-1.66006 1.22819,-2.49019 3.68508,-2.49019 h 2.4902 c 2.02528,0 3.2205,0.73053 3.58571,2.19138 h 6.83492 v -2.44438 c -0.55834,-1.31206 -1.43946,-2.37523 -2.65158,-3.18331 -1.85928,-1.26165 -4.44892,-1.89258 -7.76905,-1.89258 z m -86.940183,0.0522 v 6.56535 c 0.905465,0.17515 1.673373,0.5153 2.277364,1.05218 0.929638,0.79683 1.394328,1.87597 1.394328,3.23722 v 6.52377 c 0,1.36126 -0.46469,2.44039 -1.394328,3.23722 -0.603991,0.53689 -1.371899,0.87704 -2.277364,1.05218 v 6.61504 c 1.34182,-0.10072 2.582569,-0.34845 3.721376,-0.74456 1.560462,-0.53122 2.888601,-1.27823 3.984244,-2.24107 1.095643,-0.99604 1.942258,-2.15829 2.539883,-3.48635 0.597622,-1.36125 0.896428,-2.83879 0.896428,-4.43246 v -6.52377 c 0,-1.59366 -0.298806,-3.05472 -0.896428,-4.38278 -0.597625,-1.36125 -1.44424,-2.52315 -2.539883,-3.48599 -1.095643,-0.96284 -2.423782,-1.70985 -3.984244,-2.24107 -1.138807,-0.39611 -2.379556,-0.6441 -3.721376,-0.74491 z m -24.584488,0.2079 v 12.43971 h 6.990663 v -2.24108 c 0,-3.28692 -0.829778,-5.8436 -2.489844,-7.66968 -1.163385,-1.30299 -2.668789,-2.13908 -4.500819,-2.52895 z m -17.561757,0.2382 v 27.39111 h 0.952808 v -27.39111 z m 66.674352,0.013 c -0.33395,0.0866 -0.6656,0.17685 -0.98558,0.28578 -1.52726,0.49802 -2.83857,1.21171 -3.93421,2.14135 -0.50404,0.42767 -0.94917,0.90239 -1.347812,1.41441 v 19.74257 c 0.398632,0.50501 0.843782,0.97582 1.347812,1.40349 1.09564,0.92964 2.40695,1.64333 3.93421,2.14135 0.31998,0.10212 0.65164,0.18662 0.98558,0.2678 v -7.5615 c -0.58107,-0.68187 -0.88586,-1.54782 -0.88586,-2.61705 v -7.02202 c 0,-1.06924 0.30479,-1.93492 0.88586,-2.6167 z m 57.294256,0.1628 c -1.15601,0.35224 -2.16225,0.83585 -2.99972,1.46762 -1.85927,1.42766 -2.78901,3.48597 -2.78901,6.17528 0,2.5565 0.79682,4.53205 2.39048,5.92651 0.86983,0.72782 2.01587,1.30224 3.39825,1.74528 z m -63.859962,4.09242 c -0.338439,0.48712 -0.643202,1.00129 -0.893962,1.55853 -0.597625,1.29485 -0.896429,2.75556 -0.896429,4.38243 v 7.02202 c 0,1.62686 0.298804,3.10441 0.896429,4.43246 0.250752,0.5433 0.555534,1.04707 0.893962,1.52611 z m 82.186362,1.13745 v 1.61632 h 0.33757 c -0.0687,-0.57257 -0.1846,-1.10869 -0.33757,-1.61632 z m 0,10.24903 v 7.48715 c 0.52058,-1.09311 0.78579,-2.36371 0.78579,-3.81863 0,-1.38481 -0.2683,-2.6037 -0.78579,-3.66852 z m -66.24727,2.22416 c -0.26561,1.06244 -0.86322,1.92554 -1.79286,2.58956 -0.92964,0.63083 -2.05857,0.94647 -3.38663,0.94647 -1.59366,0 -2.838676,-0.36544 -3.735116,-1.09587 -0.0613,-0.05 -0.1039,-0.1125 -0.16103,-0.16527 v 7.33 c 1.20998,0.26818 2.507406,0.40523 3.896146,0.40523 1.66007,0 3.2039,-0.23252 4.63155,-0.69734 1.42766,-0.46482 2.68916,-1.12872 3.78481,-1.99195 1.09564,-0.89643 2.00889,-1.95874 2.73932,-3.18718 0.73043,-1.22845 1.22844,-2.60639 1.49405,-4.13365 z m 41.63425,2.29075 c 0.33201,2.5233 1.46059,4.44905 3.38627,5.7771 0.8264,0.55569 1.79878,0.9848 2.90035,1.30201 v -7.07912 z" />
    <rect
       style="fill:none;stroke:#000000;stroke-width:0.167538;stroke-opacity:1"
       id="rect37245"
       width="0.43683556"
       height="114.88157"
       x="-152.08008"
       y="151.68343" />
  </g>
</svg>
