<?xml version="1.0" encoding="UTF-8" standalone="no"?>
<svg
   width="23.649464mm"
   height="6.09161mm"
   viewBox="0 0 23.649464 6.0916098"
   version="1.1"
   id="svg5"
   inkscape:version="1.1.2 (0a00cf5339, 2022-02-04)"
   sodipodi:docname="logo_rocks_light.svg"
   xmlns:inkscape="http://www.inkscape.org/namespaces/inkscape"
   xmlns:sodipodi="http://sodipodi.sourceforge.net/DTD/sodipodi-0.dtd"
   xmlns="http://www.w3.org/2000/svg"
   xmlns:svg="http://www.w3.org/2000/svg"
   xmlns:rdf="http://www.w3.org/1999/02/22-rdf-syntax-ns#"
   xmlns:cc="http://creativecommons.org/ns#"
   xmlns:dc="http://purl.org/dc/elements/1.1/">
  <metadata
     id="metadata21">
    <rdf:RDF>
      <cc:Work
         rdf:about="">
        <dc:format>image/svg+xml</dc:format>
        <dc:type
           rdf:resource="http://purl.org/dc/dcmitype/StillImage" />
      </cc:Work>
    </rdf:RDF>
  </metadata>
  <sodipodi:namedview
     id="namedview7"
     pagecolor="#505050"
     bordercolor="#eeeeee"
     borderopacity="1"
     inkscape:pageshadow="0"
     inkscape:pageopacity="0"
     inkscape:pagecheckerboard="false"
     inkscape:document-units="mm"
     showgrid="false"
     showguides="true"
     inkscape:guide-bbox="true"
     inkscape:zoom="8.713507"
     inkscape:cx="78.326671"
     inkscape:cy="7.5170652"
     inkscape:window-width="2560"
     inkscape:window-height="1440"
     inkscape:window-x="0"
     inkscape:window-y="0"
     inkscape:window-maximized="0"
     inkscape:current-layer="layer1"
     inkscape:document-rotation="0">
    <sodipodi:guide
       position="149.12227,-67.586323"
       orientation="0,-1"
       id="guide37098" />
    <sodipodi:guide
       position="123.57242,75.807027"
       orientation="0,-1"
       id="guide37100" />
    <sodipodi:guide
       position="-59.433276,92.672691"
       orientation="1,0"
       id="guide37102" />
    <sodipodi:guide
       position="-105.47207,73.524716"
       orientation="1,0"
       id="guide37104" />
    <sodipodi:guide
       position="-82.128417,59.140546"
       orientation="1,0"
       id="guide37106" />
    <sodipodi:guide
       position="-165.93916,65.174196"
       orientation="1,0"
       id="guide37108" />
    <sodipodi:guide
       position="-59.433276,76.357546"
       orientation="1,0"
       id="guide37110" />
    <sodipodi:guide
       position="-92.34673,75.071766"
       orientation="1,0"
       id="guide37112" />
    <sodipodi:guide
       position="-92.34673,75.071766"
       orientation="1,0"
       id="guide37114" />
    <sodipodi:guide
       position="-74.141966,81.101536"
       orientation="1,0"
       id="guide37116" />
    <sodipodi:guide
       position="83.517985,18.427109"
       orientation="0,-1"
       id="guide987" />
    <sodipodi:guide
       position="74.442344,0.40548921"
       orientation="1,0"
       id="guide989" />
  </sodipodi:namedview>
  <defs
     id="defs2">
    <rect
       x="86.346992"
       y="536.22894"
       width="639.38995"
       height="263.73615"
       id="rect5570" />
  </defs>
  <g
     inkscape:label="Layer 1"
     inkscape:groupmode="layer"
     id="layer1"
     transform="translate(-31.772582,-189.87135)">
    <path
       id="text5568"
       style="font-style:normal;font-variant:normal;font-weight:normal;font-stretch:normal;font-size:192px;line-height:1.25;font-family:'JetBrainsMonoExtraBold Nerd Font Mono';-inkscape-font-specification:'JetBrainsMonoExtraBold Nerd Font Mono';white-space:pre;shape-inside:url(#rect5570);fill:#000000;fill-opacity:1;stroke:none;stroke-width:0.0428733"
       d="m 46.490762,189.87135 v 6.0091 h 1.234736 v -1.77808 h 0.600886 l 0.954882,1.77808 h 1.399389 l -1.284127,-2.3131 1.259431,-2.21431 h -1.374693 l -0.946612,1.71215 h -0.609156 v -3.19384 z m -12.232224,1.39934 c -0.351216,0 -0.633811,0.0741 -0.847833,0.22225 -0.214023,0.14817 -0.343002,0.36225 -0.386904,0.64212 h -0.0823 v -0.78202 H 32.01784 v 4.52741 h 0.989537 v -2.79877 c 0,-0.24147 0.06307,-0.43079 0.189288,-0.56798 0.126219,-0.14269 0.299079,-0.21404 0.518589,-0.21404 0.246949,0 0.44178,0.0686 0.584462,0.20582 0.142682,0.13719 0.214041,0.32924 0.214041,0.5762 v 0.28812 h 0.03867 v -2.07779 c -0.09356,-0.0131 -0.190737,-0.0214 -0.293891,-0.0214 z m 4.247554,0 c -0.312803,0 -0.598179,0.0439 -0.856104,0.13174 -0.252437,0.0878 -0.46918,0.21128 -0.650276,0.37042 -0.181095,0.15915 -0.32103,0.35119 -0.41981,0.5762 -0.09878,0.2195 -0.148168,0.461 -0.148168,0.72441 v 1.0783 c 0,0.26341 0.04939,0.50763 0.148168,0.73263 0.09878,0.21951 0.238715,0.41162 0.41981,0.57625 0.181096,0.15915 0.397839,0.28261 0.650276,0.37042 0.257925,0.0878 0.543301,0.13168 0.856104,0.13168 0.06266,0 0.123224,-0.003 0.183463,-0.007 v -1.08419 c -0.05771,0.008 -0.118867,0.0124 -0.183463,0.0124 -0.257925,0 -0.463712,-0.0658 -0.617369,-0.19755 -0.14817,-0.1317 -0.222252,-0.31007 -0.222252,-0.53508 v -1.07829 c 0,-0.225 0.07408,-0.40336 0.222252,-0.53507 0.153657,-0.13171 0.359444,-0.19756 0.617369,-0.19756 0.0646,0 0.125749,0.005 0.183463,0.0124 v -1.07596 c -0.06024,-0.003 -0.120799,-0.007 -0.183463,-0.007 z m 4.980123,0 c -0.229541,0 -0.44399,0.0242 -0.643984,0.0715 v 1.21534 c 0.0094,-0.009 0.01647,-0.019 0.02661,-0.0273 0.148171,-0.12621 0.353956,-0.18934 0.617368,-0.18934 0.224999,0 0.414322,0.0521 0.567979,0.15638 0.153658,0.10427 0.249711,0.2442 0.288125,0.41981 h 1.234738 c -0.04391,-0.25244 -0.126217,-0.48013 -0.246948,-0.68318 -0.120731,-0.20305 -0.27168,-0.37597 -0.452776,-0.51865 -0.181097,-0.14268 -0.389607,-0.25241 -0.625581,-0.32924 -0.235972,-0.0768 -0.491149,-0.11526 -0.765537,-0.11526 z m 9.622736,0 c -0.302083,0 -0.56708,0.0326 -0.796638,0.0962 v 2.55976 c 0.188003,0.0562 0.397675,0.10041 0.640257,0.12632 l 0.617369,0.0658 c 0.43902,0.0494 0.658545,0.20857 0.658545,0.47747 0,0.15366 -0.0604,0.27162 -0.181134,0.35394 -0.120729,0.0823 -0.296315,0.12347 -0.5268,0.12347 h -0.411599 c -0.170121,0 -0.31278,-0.0329 -0.428022,-0.0988 -0.109756,-0.0658 -0.18384,-0.1619 -0.222254,-0.28812 h -0.146362 v 1.18401 c 0.230916,0.0607 0.495747,0.0919 0.796638,0.0919 h 0.411599 c 0.620116,0 1.092092,-0.11796 1.41587,-0.35393 0.12769,-0.0952 0.229205,-0.20864 0.306529,-0.33886 v -1.4214 c -0.248536,-0.41074 -0.75618,-0.66127 -1.524842,-0.75039 l -0.658546,-0.0741 c -0.373168,-0.0439 -0.559708,-0.19757 -0.559708,-0.46099 0,-0.27439 0.203005,-0.41159 0.609098,-0.41159 h 0.411599 c 0.334753,0 0.532308,0.12074 0.592673,0.36221 h 1.129726 v -0.40404 c -0.09229,-0.21686 -0.237925,-0.39259 -0.438273,-0.52616 -0.307316,-0.20852 -0.735351,-0.31281 -1.284126,-0.31281 z m -14.370123,0.009 v 1.08518 c 0.149662,0.029 0.276587,0.0852 0.37642,0.17391 0.153657,0.1317 0.230465,0.31007 0.230465,0.53507 v 1.07829 c 0,0.225 -0.07681,0.40337 -0.230465,0.53508 -0.09983,0.0887 -0.226758,0.14496 -0.37642,0.17391 v 1.09338 c 0.221786,-0.0166 0.426866,-0.0576 0.615097,-0.12307 0.257925,-0.0878 0.477449,-0.21127 0.658546,-0.37042 0.181096,-0.16463 0.32103,-0.35673 0.41981,-0.57625 0.09878,-0.22499 0.148168,-0.46921 0.148168,-0.73263 v -1.07829 c 0,-0.26341 -0.04939,-0.50491 -0.148168,-0.72442 -0.09878,-0.225 -0.238714,-0.41705 -0.41981,-0.57619 -0.181097,-0.15914 -0.400621,-0.28262 -0.658546,-0.37042 -0.188231,-0.0655 -0.393311,-0.10647 -0.615097,-0.12313 z m -4.063508,0.0343 v 2.05614 h 1.155469 v -0.37042 c 0,-0.5433 -0.137152,-0.96589 -0.41154,-1.26771 -0.192292,-0.21537 -0.441117,-0.35356 -0.743929,-0.41801 z m -2.902738,0.0394 v 4.52741 h 0.157487 v -4.52741 z m 11.020435,0.002 c -0.0552,0.0143 -0.110015,0.0292 -0.162904,0.0473 -0.252437,0.0823 -0.46918,0.20029 -0.650276,0.35394 -0.08331,0.0707 -0.156886,0.14915 -0.222776,0.23379 v 3.26319 c 0.06589,0.0835 0.139466,0.16129 0.222776,0.23198 0.181096,0.15366 0.397839,0.27162 0.650276,0.35394 0.05289,0.0169 0.107708,0.0308 0.162904,0.0443 v -1.24982 c -0.09604,-0.11271 -0.146422,-0.25584 -0.146422,-0.43257 v -1.16065 c 0,-0.17673 0.05038,-0.31982 0.146422,-0.43251 z m 9.470022,0.0269 c -0.191074,0.0582 -0.357393,0.13815 -0.495816,0.24258 -0.307314,0.23597 -0.460989,0.57618 -0.460989,1.02069 0,0.42256 0.131705,0.74909 0.395117,0.97958 0.143772,0.1203 0.333198,0.21525 0.561688,0.28847 z m -10.555251,0.67642 c -0.05594,0.0805 -0.106313,0.1655 -0.147761,0.25761 -0.09878,0.21402 -0.148168,0.45546 -0.148168,0.72436 v 1.16065 c 0,0.2689 0.04939,0.51312 0.148168,0.73263 0.04145,0.0898 0.09182,0.17307 0.147761,0.25224 z m 13.584376,0.18801 v 0.26716 h 0.05579 c -0.01136,-0.0947 -0.03052,-0.18326 -0.05579,-0.26716 z m 0,1.69403 v 1.23754 c 0.08604,-0.18068 0.129881,-0.39069 0.129881,-0.63118 0,-0.22888 -0.04435,-0.43036 -0.129881,-0.60636 z m -10.949845,0.36763 c -0.0439,0.17561 -0.142678,0.31827 -0.296336,0.42802 -0.153658,0.10427 -0.340256,0.15644 -0.559768,0.15644 -0.263412,0 -0.469197,-0.0604 -0.617368,-0.18114 -0.01013,-0.008 -0.01717,-0.0186 -0.02661,-0.0273 v 1.21156 c 0.199995,0.0443 0.414443,0.067 0.643984,0.067 0.274389,0 0.529565,-0.0385 0.765537,-0.11526 0.235975,-0.0769 0.444485,-0.18656 0.625582,-0.32925 0.181096,-0.14816 0.332045,-0.32375 0.452775,-0.52679 0.120732,-0.20306 0.203046,-0.43081 0.246948,-0.68324 z m 6.88162,0.37863 c 0.05488,0.41707 0.241418,0.73537 0.559708,0.95488 0.136594,0.0918 0.297316,0.16278 0.479392,0.2152 v -1.17008 z" />
    <rect
       style="fill:none;stroke:#000000;stroke-width:0.167538;stroke-opacity:1"
       id="rect37245"
       width="0.43683556"
       height="114.88157"
       x="-152.08008"
       y="151.68343" />
    <path
       style="fill:#ffffff;fill-opacity:0.96;stroke:#000000;stroke-width:0.0627187"
       d="M 24.491647,22.97613 C 21.04864,22.668011 18.626997,20.825286 17.828906,17.906185 L 17.657431,17.278998 V 14.143064 11.00713 l 0.1671,-0.608736 C 18.359888,8.4481272 19.510168,7.07027 21.347652,6.1782427 22.68285,5.5300561 23.884177,5.3015757 25.824419,5.3268065 l 0.329273,0.00428 v 2.006998 2.0069979 l -0.674225,9.27e-4 c -0.774941,0.00107 -1.30597,0.1085729 -1.821344,0.3687328 -0.667775,0.3370918 -1.113236,0.8933558 -1.300374,1.6238268 -0.08563,0.334258 -0.09723,0.766803 -0.0798,2.977591 0.01994,2.530996 0.02349,2.594262 0.16501,2.946947 0.166762,0.415584 0.65563,0.98256 1.042874,1.209501 0.537328,0.314896 0.954678,0.417599 1.837699,0.452229 l 0.83188,0.03263 -0.01654,2.014467 -0.01654,2.014467 -0.689905,0.0061 c -0.379449,0.0033 -0.8028,-0.004 -0.940781,-0.01636 z"
       id="path4985"
       transform="matrix(0.26458333,0,0,0.26458333,31.772582,189.87135)" />
    <path
       style="fill:#ffffff;fill-opacity:0.96;stroke:#000000;stroke-width:0.0627187"
       d="M 26.341848,20.919099 V 18.88316 l 0.266555,-0.07088 c 1.061058,-0.282162 1.833235,-1.145533 1.988356,-2.223183 0.0772,-0.536339 0.08263,-4.289748 0.0071,-4.875888 C 28.464244,10.630455 27.69417,9.7671013 26.60687,9.4743217 l -0.264973,-0.07135 V 7.3648681 5.326768 l 0.329274,0.039651 c 2.061109,0.2481973 3.655416,0.984473 4.85216,2.240803 1.04429,1.0962849 1.587334,2.3469951 1.721178,3.964125 0.07558,0.913161 0.07318,4.263725 -0.0037,5.174542 -0.238815,2.829097 -1.897624,4.864947 -4.726061,5.800279 -0.609216,0.201461 -1.621607,0.408871 -1.995739,0.408871 h -0.177105 z"
       id="path5024"
       transform="matrix(0.26458333,0,0,0.26458333,31.772582,189.87135)" />
    <path
       style="fill:#ffffff;fill-opacity:0.96;stroke:#000000;stroke-width:0.0627187"
       d="m 37.228417,19.542885 c -0.335551,-0.590651 -0.582818,-1.338607 -0.699364,-2.115501 -0.145192,-0.967836 -0.09765,-6.263009 0.06242,-6.953363 0.131124,-0.565491 0.411347,-1.2854944 0.683478,-1.7561235 l 0.19946,-0.3449528 0.01631,2.9007393 c 0.009,1.595407 0.009,4.206072 0,5.801478 l -0.01631,2.90074 z"
       id="path5063"
       transform="matrix(0.26458333,0,0,0.26458333,31.772582,189.87135)" />
    <path
       style="fill:#ffffff;fill-opacity:0.96;stroke:#000000;stroke-width:0.0627187"
       d="M 41.018021,22.52263 C 39.866005,22.140709 38.944617,21.590673 38.21136,20.847154 L 37.756649,20.386079 V 14.188196 7.9903127 l 0.316179,-0.3547443 c 0.664739,-0.7458202 1.823678,-1.4605965 2.968879,-1.831058 0.271741,-0.087906 0.518696,-0.1598286 0.548788,-0.1598286 0.03016,0 0.05471,1.0461018 0.05471,2.3307803 v 2.3307799 l -0.180983,0.287725 c -0.352643,0.560626 -0.352126,0.555312 -0.352126,3.619356 v 2.82988 l 0.266555,0.525667 0.266554,0.525667 v 2.304814 c 0,1.267647 -0.02117,2.303735 -0.04704,2.302416 -0.02587,-0.0013 -0.286938,-0.08193 -0.580148,-0.179137 z"
       id="path5102"
       transform="matrix(0.26458333,0,0,0.26458333,31.772582,189.87135)" />
    <path
       style="fill:#ffffff;fill-opacity:0.96;stroke:#000000;stroke-width:0.0627187"
       d="m 47.426983,11.210965 c -0.20334,-0.664196 -0.87802,-1.3353829 -1.622223,-1.6138252 -0.598159,-0.2238 -0.94316,-0.2695703 -1.773043,-0.2352252 -0.89091,0.036871 -1.323488,0.1569237 -1.86908,0.5187235 L 41.833364,10.09899 V 7.844703 c 0,-2.0922611 0.0079,-2.2567145 0.109758,-2.2880613 0.729786,-0.2245681 2.85993,-0.2977902 3.874749,-0.1331916 1.780859,0.2888463 3.429316,1.1257586 4.484685,2.2768493 0.792044,0.8638823 1.411958,1.9934934 1.688593,3.0769646 0.07044,0.275902 0.12808,0.546328 0.12808,0.600948 0,0.0888 -0.244001,0.09931 -2.305321,0.09931 h -2.305321 z"
       id="path5141"
       transform="matrix(0.26458333,0,0,0.26458333,31.772582,189.87135)" />
    <path
       style="fill:#ffffff;fill-opacity:0.96;stroke:#000000;stroke-width:0.0627187"
       d="m 43.096812,22.956825 c -0.253723,-0.02904 -0.641795,-0.08685 -0.862382,-0.128469 l -0.401066,-0.07568 v -2.24939 -2.249389 l 0.294851,0.186989 c 1.069372,0.678175 2.755133,0.738541 3.935277,0.140918 0.447756,-0.226742 1.004365,-0.784218 1.22616,-1.22807 0.103617,-0.207355 0.188394,-0.414836 0.188394,-0.461069 0,-0.06876 0.423881,-0.08406 2.328607,-0.08406 h 2.328608 l -0.04234,0.266554 c -0.02329,0.146605 -0.140842,0.561335 -0.261232,0.921622 -0.85677,2.564014 -3.009652,4.360629 -5.827531,4.86317 -0.666268,0.118822 -2.253427,0.171705 -2.907345,0.09687 z"
       id="path5180"
       transform="matrix(0.26458333,0,0,0.26458333,31.772582,189.87135)" />
    <path
       style="fill:#ffffff;fill-opacity:0.96;stroke:#000000;stroke-width:0.0627187"
       d="M 55.631475,11.352082 V 0 h 2.320592 2.320591 v 6.0537372 6.0537368 l 1.16837,-0.01706 1.16837,-0.01706 1.794485,-3.2456918 1.794486,-3.2456921 h 2.563099 c 2.415082,0 2.560697,0.00634 2.521499,0.1097577 -0.02288,0.060367 -1.052111,1.8878325 -2.287182,4.061035 -1.23507,2.1732022 -2.278705,4.0147122 -2.319187,4.0922442 -0.06631,0.126989 0.163746,0.568503 2.320268,4.453026 1.316631,2.371633 2.405855,4.333228 2.420498,4.3591 0.01464,0.02587 -1.157246,0.04704 -2.604196,0.04704 H 66.18235 l -1.791754,-3.33977 -1.791753,-3.339771 -1.163092,-0.01706 -1.163093,-0.01706 v 3.356834 3.356834 h -2.320591 -2.320592 z"
       id="path5219"
       transform="matrix(0.26458333,0,0,0.26458333,31.772582,189.87135)" />
    <path
       style="fill:#ffffff;fill-opacity:0.96;stroke:#000000;stroke-width:0.0627187"
       d="m 76.767673,15.01102 c -1.795476,-0.766448 -2.680064,-1.947583 -2.885144,-3.852349 -0.05333,-0.495332 -0.05332,-0.827792 4.7e-5,-1.3165295 0.192335,-1.76144 1.007605,-2.9488691 2.540144,-3.6996823 0.344953,-0.1689974 0.718913,-0.3254371 0.831023,-0.3476438 l 0.203835,-0.040376 V 10.49754 c 0,3.753214 -0.01636,4.742887 -0.0784,4.742077 -0.04312,-5.65e-4 -0.318297,-0.103432 -0.611507,-0.228597 z"
       id="path5258"
       transform="matrix(0.26458333,0,0,0.26458333,31.772582,189.87135)" />
    <path
       style="fill:#ffffff;fill-opacity:0.96;stroke:#000000;stroke-width:0.0627187"
       d="m 79.289448,22.949261 c -0.32054,-0.03264 -0.814449,-0.108308 -1.097577,-0.168147 l -0.514777,-0.108798 -0.01647,-2.241948 -0.01647,-2.241949 h 0.253011 c 0.216208,0 0.263808,0.02509 0.327231,0.172477 0.244426,0.568023 0.718149,0.976711 1.365622,1.178143 0.439753,0.136809 2.424114,0.199258 3.198653,0.100663 0.693384,-0.08826 0.902314,-0.15172 1.3157,-0.399601 0.481886,-0.288956 0.711451,-0.675052 0.744013,-1.251324 0.0309,-0.546895 -0.09633,-0.903492 -0.429866,-1.204824 -0.547704,-0.494819 -1.123556,-0.64894 -3.293404,-0.881448 -1.60505,-0.171989 -2.303919,-0.278917 -3.008986,-0.460382 l -0.43903,-0.112995 -0.01606,-4.83468 -0.01606,-4.8346809 0.288343,-0.072606 c 0.769483,-0.1937581 1.596504,-0.2537887 3.506908,-0.2545544 2.50148,-0.001 3.487357,0.1366768 4.682002,0.6538494 0.955209,0.4135187 1.803977,1.1257664 2.283367,1.916098 l 0.24728,0.4076715 0.02054,0.8310226 0.02054,0.8310226 -2.121615,-2.32e-4 -2.121615,-2.321e-4 -0.11298,-0.2747675 C 84.111337,9.1464366 83.58054,8.7778784 82.841178,8.6579034 c -0.518126,-0.084075 -2.415519,-0.083053 -2.937193,0.00158 -1.009713,0.1638144 -1.564043,0.6838097 -1.566618,1.4695816 -0.0017,0.524986 0.10431,0.784631 0.463531,1.135085 0.481855,0.470096 0.784058,0.552515 2.975738,0.811567 2.092009,0.24727 2.841957,0.384761 3.751049,0.687693 1.306463,0.435346 2.269973,1.059389 2.871805,1.860004 l 0.284733,0.378778 v 2.718431 2.71843 l -0.297914,0.393469 c -0.7716,1.019088 -2.202623,1.738228 -4.040832,2.030662 -0.771461,0.122728 -4.133975,0.179972 -5.056029,0.08607 z"
       id="path5297"
       transform="matrix(0.26458333,0,0,0.26458333,31.772582,189.87135)" />
    <path
       style="fill:#ffffff;fill-opacity:0.96;stroke:#000000;stroke-width:0.0627187"
       d="M 76.767673,22.371448 C 75.528064,21.899148 74.612497,21.08873 74.047674,19.963826 73.854503,19.579107 73.56902,18.627698 73.56902,18.368653 v -0.182047 l 1.928599,0.01659 1.9286,0.01659 0.01649,2.179474 c 0.01304,1.723262 -8.8e-5,2.179039 -0.06272,2.177394 -0.04357,-0.0011 -0.31911,-0.09348 -0.61232,-0.205199 z"
       id="path5375"
       transform="matrix(0.26458333,0,0,0.26458333,31.772582,189.87135)" />
    <path
       style="fill:#ffffff;fill-opacity:0.96;stroke:#000000;stroke-width:0.0627187"
       d="M 10.97577,9.3510384 V 5.4684338 l 0.360633,0.093844 c 1.029609,0.2679261 2.033218,0.9327682 2.680661,1.7758084 0.919251,1.1969623 1.286296,2.541 1.286296,4.7101338 v 1.185423 H 13.139565 10.97577 Z"
       id="path5414"
       transform="matrix(0.26458333,0,0,0.26458333,31.772582,189.87135)" />
    <path
       style="fill:#ffffff;fill-opacity:0.96;stroke:#000000;stroke-width:0.0627187"
       d="M 0.9407803,14.143064 V 5.5819631 H 2.664409 4.3880379 l 0.016815,1.4895688 0.016815,1.4895689 h 0.1481178 c 0.1302412,0 0.1647784,-0.056772 0.286162,-0.4703902 C 4.9318715,7.831996 5.073656,7.4650917 5.1710236,7.2753677 5.4273542,6.7758996 6.0769384,6.1635364 6.6481808,5.8828514 7.4332413,5.4971049 7.929173,5.3863445 9.0412098,5.3483971 c 0.5400223,-0.018428 1.0833232,-0.01447 1.2073352,0.00879 l 0.225476,0.0423 v 3.9207774 c 0,2.5978805 -0.02116,3.9076995 -0.06272,3.8820155 -0.03675,-0.02271 -0.06272,-0.385554 -0.06272,-0.876175 0,-0.913507 -0.09288,-1.351962 -0.3959647,-1.86913 C 9.1977149,9.1688334 7.0406156,8.749415 5.7508989,9.6400122 5.396597,9.8846708 4.9822951,10.471479 4.8146606,10.96608 l -0.141456,0.417362 -0.018223,5.660361 -0.018223,5.660362 H 2.7887698 0.9407803 Z"
       id="path5453"
       transform="matrix(0.26458333,0,0,0.26458333,31.772582,189.87135)" />
    <path
       style="fill:#ffffff;fill-opacity:0.96;stroke:#000000;stroke-width:0.0627187"
       d="M 0,14.174423 V 5.6446818 h 0.28223409 0.28223409 v 8.5297412 8.529742 H 0.28223409 0 Z"
       id="path5492"
       transform="matrix(0.26458333,0,0,0.26458333,31.772582,189.87135)" />
    <path
       style="fill:#ffffff;fill-opacity:0.96;stroke:#000000;stroke-width:0.00585128"
       d="m 88.893102,17.71768 c -5.5e-5,-1.577364 0.0018,-2.328444 0.0058,-2.321561 0.0033,0.0056 0.02577,0.05431 0.05002,0.108249 0.312732,0.695568 0.460485,1.515544 0.429762,2.385019 -0.02191,0.620097 -0.105003,1.118798 -0.27069,1.624636 -0.05476,0.167165 -0.156978,0.42559 -0.202523,0.511987 l -0.01234,0.02341 z"
       id="path5531"
       transform="matrix(0.26458333,0,0,0.26458333,31.772582,189.87135)" />
    <path
       style="fill:#ffffff;fill-opacity:0.96;stroke:#000000;stroke-width:0.00585128"
       d="m 88.893244,9.4893154 c 6.48e-4,-0.5591683 -0.0037,-0.523799 0.0431,-0.3525397 0.065,0.2379919 0.122264,0.5195668 0.152313,0.748964 0.0051,0.038619 0.01063,0.077456 0.01239,0.086306 l 0.0032,0.016091 h -0.105788 -0.105788 z"
       id="path5570"
       transform="matrix(0.26458333,0,0,0.26458333,31.772582,189.87135)" />
  </g>
</svg>
