<?xml version="1.0" encoding="UTF-8" standalone="no"?>
<svg
   xmlns:dc="http://purl.org/dc/elements/1.1/"
   xmlns:cc="http://creativecommons.org/ns#"
   xmlns:rdf="http://www.w3.org/1999/02/22-rdf-syntax-ns#"
   xmlns:svg="http://www.w3.org/2000/svg"
   xmlns="http://www.w3.org/2000/svg"
   xmlns:sodipodi="http://sodipodi.sourceforge.net/DTD/sodipodi-0.dtd"
   xmlns:inkscape="http://www.inkscape.org/namespaces/inkscape"
   width="23.649464mm"
   height="6.09161mm"
   viewBox="0 0 23.649464 6.0916098"
   version="1.1"
   id="svg5"
   inkscape:version="1.0.2 (1.0.2+r75+1)"
   sodipodi:docname="logo_rocks.svg">
  <metadata
     id="metadata21">
    <rdf:RDF>
      <cc:Work
         rdf:about="">
        <dc:format>image/svg+xml</dc:format>
        <dc:type
           rdf:resource="http://purl.org/dc/dcmitype/StillImage" />
      </cc:Work>
    </rdf:RDF>
  </metadata>
  <sodipodi:namedview
     id="namedview7"
     pagecolor="#505050"
     bordercolor="#eeeeee"
     borderopacity="1"
     inkscape:pageshadow="0"
     inkscape:pageopacity="0"
     inkscape:pagecheckerboard="false"
     inkscape:document-units="mm"
     showgrid="false"
     showguides="true"
     inkscape:guide-bbox="true"
     inkscape:zoom="0.77771465"
     inkscape:cx="287.65164"
     inkscape:cy="-158.75499"
     inkscape:window-width="1920"
     inkscape:window-height="1080"
     inkscape:window-x="1920"
     inkscape:window-y="0"
     inkscape:window-maximized="1"
     inkscape:current-layer="layer1"
     inkscape:document-rotation="0">
    <sodipodi:guide
       position="149.12227,-67.586323"
       orientation="0,-1"
       id="guide37098" />
    <sodipodi:guide
       position="123.57242,75.807027"
       orientation="0,-1"
       id="guide37100" />
    <sodipodi:guide
       position="-59.433276,92.672691"
       orientation="1,0"
       id="guide37102" />
    <sodipodi:guide
       position="-105.47207,73.524716"
       orientation="1,0"
       id="guide37104" />
    <sodipodi:guide
       position="-82.128417,59.140546"
       orientation="1,0"
       id="guide37106" />
    <sodipodi:guide
       position="-165.93916,65.174196"
       orientation="1,0"
       id="guide37108" />
    <sodipodi:guide
       position="-59.433276,76.357546"
       orientation="1,0"
       id="guide37110" />
    <sodipodi:guide
       position="-92.34673,75.071766"
       orientation="1,0"
       id="guide37112" />
    <sodipodi:guide
       position="-92.34673,75.071766"
       orientation="1,0"
       id="guide37114" />
    <sodipodi:guide
       position="-74.141966,81.101536"
       orientation="1,0"
       id="guide37116" />
    <sodipodi:guide
       position="83.517985,18.427109"
       orientation="0,-1"
       id="guide987" />
    <sodipodi:guide
       position="74.442344,0.40548921"
       orientation="1,0"
       id="guide989" />
  </sodipodi:namedview>
  <defs
     id="defs2">
    <rect
       x="86.346992"
       y="536.22894"
       width="639.38995"
       height="263.73615"
       id="rect5570" />
  </defs>
  <g
     inkscape:label="Layer 1"
     inkscape:groupmode="layer"
     id="layer1"
     transform="translate(-31.772582,-189.87135)">
    <path
       id="text5568"
       style="font-style:normal;font-variant:normal;font-weight:normal;font-stretch:normal;font-size:192px;line-height:1.25;font-family:'JetBrainsMonoExtraBold Nerd Font Mono';-inkscape-font-specification:'JetBrainsMonoExtraBold Nerd Font Mono';white-space:pre;shape-inside:url(#rect5570);fill:#000000;fill-opacity:1;stroke:none;stroke-width:0.0428733"
       d="m 46.490762,189.87135 v 6.0091 h 1.234736 v -1.77808 h 0.600886 l 0.954882,1.77808 h 1.399389 l -1.284127,-2.3131 1.259431,-2.21431 h -1.374693 l -0.946612,1.71215 h -0.609156 v -3.19384 z m -12.232224,1.39934 c -0.351216,0 -0.633811,0.0741 -0.847833,0.22225 -0.214023,0.14817 -0.343002,0.36225 -0.386904,0.64212 h -0.0823 v -0.78202 H 32.01784 v 4.52741 h 0.989537 v -2.79877 c 0,-0.24147 0.06307,-0.43079 0.189288,-0.56798 0.126219,-0.14269 0.299079,-0.21404 0.518589,-0.21404 0.246949,0 0.44178,0.0686 0.584462,0.20582 0.142682,0.13719 0.214041,0.32924 0.214041,0.5762 v 0.28812 h 0.03867 v -2.07779 c -0.09356,-0.0131 -0.190737,-0.0214 -0.293891,-0.0214 z m 4.247554,0 c -0.312803,0 -0.598179,0.0439 -0.856104,0.13174 -0.252437,0.0878 -0.46918,0.21128 -0.650276,0.37042 -0.181095,0.15915 -0.32103,0.35119 -0.41981,0.5762 -0.09878,0.2195 -0.148168,0.461 -0.148168,0.72441 v 1.0783 c 0,0.26341 0.04939,0.50763 0.148168,0.73263 0.09878,0.21951 0.238715,0.41162 0.41981,0.57625 0.181096,0.15915 0.397839,0.28261 0.650276,0.37042 0.257925,0.0878 0.543301,0.13168 0.856104,0.13168 0.06266,0 0.123224,-0.003 0.183463,-0.007 v -1.08419 c -0.05771,0.008 -0.118867,0.0124 -0.183463,0.0124 -0.257925,0 -0.463712,-0.0658 -0.617369,-0.19755 -0.14817,-0.1317 -0.222252,-0.31007 -0.222252,-0.53508 v -1.07829 c 0,-0.225 0.07408,-0.40336 0.222252,-0.53507 0.153657,-0.13171 0.359444,-0.19756 0.617369,-0.19756 0.0646,0 0.125749,0.005 0.183463,0.0124 v -1.07596 c -0.06024,-0.003 -0.120799,-0.007 -0.183463,-0.007 z m 4.980123,0 c -0.229541,0 -0.44399,0.0242 -0.643984,0.0715 v 1.21534 c 0.0094,-0.009 0.01647,-0.019 0.02661,-0.0273 0.148171,-0.12621 0.353956,-0.18934 0.617368,-0.18934 0.224999,0 0.414322,0.0521 0.567979,0.15638 0.153658,0.10427 0.249711,0.2442 0.288125,0.41981 h 1.234738 c -0.04391,-0.25244 -0.126217,-0.48013 -0.246948,-0.68318 -0.120731,-0.20305 -0.27168,-0.37597 -0.452776,-0.51865 -0.181097,-0.14268 -0.389607,-0.25241 -0.625581,-0.32924 -0.235972,-0.0768 -0.491149,-0.11526 -0.765537,-0.11526 z m 9.622736,0 c -0.302083,0 -0.56708,0.0326 -0.796638,0.0962 v 2.55976 c 0.188003,0.0562 0.397675,0.10041 0.640257,0.12632 l 0.617369,0.0658 c 0.43902,0.0494 0.658545,0.20857 0.658545,0.47747 0,0.15366 -0.0604,0.27162 -0.181134,0.35394 -0.120729,0.0823 -0.296315,0.12347 -0.5268,0.12347 h -0.411599 c -0.170121,0 -0.31278,-0.0329 -0.428022,-0.0988 -0.109756,-0.0658 -0.18384,-0.1619 -0.222254,-0.28812 h -0.146362 v 1.18401 c 0.230916,0.0607 0.495747,0.0919 0.796638,0.0919 h 0.411599 c 0.620116,0 1.092092,-0.11796 1.41587,-0.35393 0.12769,-0.0952 0.229205,-0.20864 0.306529,-0.33886 v -1.4214 c -0.248536,-0.41074 -0.75618,-0.66127 -1.524842,-0.75039 l -0.658546,-0.0741 c -0.373168,-0.0439 -0.559708,-0.19757 -0.559708,-0.46099 0,-0.27439 0.203005,-0.41159 0.609098,-0.41159 h 0.411599 c 0.334753,0 0.532308,0.12074 0.592673,0.36221 h 1.129726 v -0.40404 c -0.09229,-0.21686 -0.237925,-0.39259 -0.438273,-0.52616 -0.307316,-0.20852 -0.735351,-0.31281 -1.284126,-0.31281 z m -14.370123,0.009 v 1.08518 c 0.149662,0.029 0.276587,0.0852 0.37642,0.17391 0.153657,0.1317 0.230465,0.31007 0.230465,0.53507 v 1.07829 c 0,0.225 -0.07681,0.40337 -0.230465,0.53508 -0.09983,0.0887 -0.226758,0.14496 -0.37642,0.17391 v 1.09338 c 0.221786,-0.0166 0.426866,-0.0576 0.615097,-0.12307 0.257925,-0.0878 0.477449,-0.21127 0.658546,-0.37042 0.181096,-0.16463 0.32103,-0.35673 0.41981,-0.57625 0.09878,-0.22499 0.148168,-0.46921 0.148168,-0.73263 v -1.07829 c 0,-0.26341 -0.04939,-0.50491 -0.148168,-0.72442 -0.09878,-0.225 -0.238714,-0.41705 -0.41981,-0.57619 -0.181097,-0.15914 -0.400621,-0.28262 -0.658546,-0.37042 -0.188231,-0.0655 -0.393311,-0.10647 -0.615097,-0.12313 z m -4.063508,0.0343 v 2.05614 h 1.155469 v -0.37042 c 0,-0.5433 -0.137152,-0.96589 -0.41154,-1.26771 -0.192292,-0.21537 -0.441117,-0.35356 -0.743929,-0.41801 z m -2.902738,0.0394 v 4.52741 h 0.157487 v -4.52741 z m 11.020435,0.002 c -0.0552,0.0143 -0.110015,0.0292 -0.162904,0.0473 -0.252437,0.0823 -0.46918,0.20029 -0.650276,0.35394 -0.08331,0.0707 -0.156886,0.14915 -0.222776,0.23379 v 3.26319 c 0.06589,0.0835 0.139466,0.16129 0.222776,0.23198 0.181096,0.15366 0.397839,0.27162 0.650276,0.35394 0.05289,0.0169 0.107708,0.0308 0.162904,0.0443 v -1.24982 c -0.09604,-0.11271 -0.146422,-0.25584 -0.146422,-0.43257 v -1.16065 c 0,-0.17673 0.05038,-0.31982 0.146422,-0.43251 z m 9.470022,0.0269 c -0.191074,0.0582 -0.357393,0.13815 -0.495816,0.24258 -0.307314,0.23597 -0.460989,0.57618 -0.460989,1.02069 0,0.42256 0.131705,0.74909 0.395117,0.97958 0.143772,0.1203 0.333198,0.21525 0.561688,0.28847 z m -10.555251,0.67642 c -0.05594,0.0805 -0.106313,0.1655 -0.147761,0.25761 -0.09878,0.21402 -0.148168,0.45546 -0.148168,0.72436 v 1.16065 c 0,0.2689 0.04939,0.51312 0.148168,0.73263 0.04145,0.0898 0.09182,0.17307 0.147761,0.25224 z m 13.584376,0.18801 v 0.26716 h 0.05579 c -0.01136,-0.0947 -0.03052,-0.18326 -0.05579,-0.26716 z m 0,1.69403 v 1.23754 c 0.08604,-0.18068 0.129881,-0.39069 0.129881,-0.63118 0,-0.22888 -0.04435,-0.43036 -0.129881,-0.60636 z m -10.949845,0.36763 c -0.0439,0.17561 -0.142678,0.31827 -0.296336,0.42802 -0.153658,0.10427 -0.340256,0.15644 -0.559768,0.15644 -0.263412,0 -0.469197,-0.0604 -0.617368,-0.18114 -0.01013,-0.008 -0.01717,-0.0186 -0.02661,-0.0273 v 1.21156 c 0.199995,0.0443 0.414443,0.067 0.643984,0.067 0.274389,0 0.529565,-0.0385 0.765537,-0.11526 0.235975,-0.0769 0.444485,-0.18656 0.625582,-0.32925 0.181096,-0.14816 0.332045,-0.32375 0.452775,-0.52679 0.120732,-0.20306 0.203046,-0.43081 0.246948,-0.68324 z m 6.88162,0.37863 c 0.05488,0.41707 0.241418,0.73537 0.559708,0.95488 0.136594,0.0918 0.297316,0.16278 0.479392,0.2152 v -1.17008 z" />
    <rect
       style="fill:none;stroke:#000000;stroke-width:0.167538;stroke-opacity:1"
       id="rect37245"
       width="0.43683556"
       height="114.88157"
       x="-152.08008"
       y="151.68343" />
  </g>
</svg>
